<svg width="241" height="40" viewBox="0 0 241 40" fill="none" xmlns="http://www.w3.org/2000/svg">
<mask id="path-1-outside-1_89_11" maskUnits="userSpaceOnUse" x="0" y="0" width="241" height="40" fill="black">
<rect fill="white" width="241" height="40"/>
<path d="M12.1094 3H18.3594L16.2656 10.8125H24.0781L26.1719 3H32.4219L26.5625 24.875H20.3125L22.4062 17.0625H14.5938L12.5 24.875L5 29.5625L12.1094 3Z"/>
<path d="M39.0625 24.875C36.0417 24.875 33.75 23.8073 32.1875 21.6719C30.625 19.5365 30.25 16.9583 31.0625 13.9375C31.8646 10.9167 33.6198 8.33854 36.3281 6.20312C39.0365 4.06771 41.901 3 44.9219 3C47.9427 3 50.2344 4.06771 51.7969 6.20312C53.3594 8.33854 53.7396 10.9167 52.9375 13.9375C52.125 16.9583 50.3646 19.5365 47.6562 21.6719C44.9479 23.8073 42.0833 24.875 39.0625 24.875ZM40.7344 18.625C42.026 18.625 43.25 18.1667 44.4062 17.25C45.5729 16.3333 46.3333 15.2292 46.6875 13.9375C47.0312 12.6458 46.8646 11.5417 46.1875 10.625C45.5208 9.70833 44.5417 9.25 43.25 9.25C41.9583 9.25 40.7292 9.70833 39.5625 10.625C38.4062 11.5417 37.6562 12.6458 37.3125 13.9375C36.9583 15.2292 37.1146 16.3333 37.7812 17.25C38.4583 18.1667 39.4427 18.625 40.7344 18.625Z"/>
<path d="M56.6875 24.875L54.7344 3H60.9844L62.3281 15.5L70.3594 3H76.6094L62.9375 24.875H56.6875Z"/>
<path d="M95.3594 3L93.6875 9.25H82.75L82.3281 10.8125H101.078L99.4062 17.0625H80.6562L80.2344 18.625H91.1719L89.5 24.875H72.3125L78.1719 3H95.3594Z"/>
<path d="M101.5 9.25L101.078 10.8125H107.328C108.37 10.8125 108.964 10.5521 109.109 10.0312C109.245 9.51042 108.792 9.25 107.75 9.25H101.5ZM99.4062 17.0625L97.3125 24.875L89.3906 31.125L96.9219 3H109.422C114.63 3 116.599 5.36458 115.328 10.0938C114.089 14.7396 111.385 17.0625 107.219 17.0625L111.375 24.875H103.562L99.4062 17.0625Z"/>
<path d="M122.844 17.0625C117.635 17.0625 115.667 14.6979 116.938 9.96875C118.177 5.32292 121.401 3 126.609 3H139.109L137.438 9.25H124.938C123.896 9.25 123.312 9.48958 123.188 9.96875C123.031 10.5312 123.474 10.8125 124.516 10.8125H129.203C134.411 10.8125 136.396 13.1354 135.156 17.7812C133.885 22.5104 130.646 24.875 125.438 24.875H116.062L117.734 18.625H127.109C128.151 18.625 128.75 18.3438 128.906 17.7812C129.031 17.3021 128.573 17.0625 127.531 17.0625H122.844Z"/>
<path d="M154.938 13.9375L148.875 24.875H142.625L140.672 3H146.922L148.266 15.5L154.734 3H160.984L160.766 15.5L168.797 3H175.047L161.375 24.875H155.125L154.938 13.9375Z"/>
<path d="M179.219 24.875C176.198 24.875 173.906 23.8073 172.344 21.6719C170.781 19.5365 170.406 16.9583 171.219 13.9375C172.021 10.9167 173.776 8.33854 176.484 6.20312C179.193 4.06771 182.057 3 185.078 3C188.099 3 190.391 4.06771 191.953 6.20312C193.516 8.33854 193.896 10.9167 193.094 13.9375C192.281 16.9583 190.521 19.5365 187.812 21.6719C185.104 23.8073 182.24 24.875 179.219 24.875ZM180.891 18.625C182.182 18.625 183.406 18.1667 184.562 17.25C185.729 16.3333 186.49 15.2292 186.844 13.9375C187.188 12.6458 187.021 11.5417 186.344 10.625C185.677 9.70833 184.698 9.25 183.406 9.25C182.115 9.25 180.885 9.70833 179.719 10.625C178.562 11.5417 177.812 12.6458 177.469 13.9375C177.115 15.2292 177.271 16.3333 177.938 17.25C178.615 18.1667 179.599 18.625 180.891 18.625Z"/>
<path d="M202.156 9.25L201.734 10.8125H207.984C209.026 10.8125 209.62 10.5521 209.766 10.0312C209.901 9.51042 209.448 9.25 208.406 9.25H202.156ZM200.062 17.0625L197.969 24.875L190.047 31.125L197.578 3H210.078C215.286 3 217.255 5.36458 215.984 10.0938C214.745 14.7396 212.042 17.0625 207.875 17.0625L212.031 24.875H204.219L200.062 17.0625Z"/>
<path d="M213.594 24.875L219.453 3H230.391C236.641 3 238.792 6.64583 236.844 13.9375C234.885 21.2292 230.781 24.875 224.531 24.875H213.594ZM224.031 9.25L221.516 18.625H226.203C228.286 18.625 229.75 17.0625 230.594 13.9375C231.427 10.8125 230.802 9.25 228.719 9.25H224.031Z"/>
</mask>
<path d="M12.1094 3H18.3594L16.2656 10.8125H24.0781L26.1719 3H32.4219L26.5625 24.875H20.3125L22.4062 17.0625H14.5938L12.5 24.875L5 29.5625L12.1094 3Z" fill="white"/>
<path d="M39.0625 24.875C36.0417 24.875 33.75 23.8073 32.1875 21.6719C30.625 19.5365 30.25 16.9583 31.0625 13.9375C31.8646 10.9167 33.6198 8.33854 36.3281 6.20312C39.0365 4.06771 41.901 3 44.9219 3C47.9427 3 50.2344 4.06771 51.7969 6.20312C53.3594 8.33854 53.7396 10.9167 52.9375 13.9375C52.125 16.9583 50.3646 19.5365 47.6562 21.6719C44.9479 23.8073 42.0833 24.875 39.0625 24.875ZM40.7344 18.625C42.026 18.625 43.25 18.1667 44.4062 17.25C45.5729 16.3333 46.3333 15.2292 46.6875 13.9375C47.0312 12.6458 46.8646 11.5417 46.1875 10.625C45.5208 9.70833 44.5417 9.25 43.25 9.25C41.9583 9.25 40.7292 9.70833 39.5625 10.625C38.4062 11.5417 37.6562 12.6458 37.3125 13.9375C36.9583 15.2292 37.1146 16.3333 37.7812 17.25C38.4583 18.1667 39.4427 18.625 40.7344 18.625Z" fill="white"/>
<path d="M56.6875 24.875L54.7344 3H60.9844L62.3281 15.5L70.3594 3H76.6094L62.9375 24.875H56.6875Z" fill="white"/>
<path d="M95.3594 3L93.6875 9.25H82.75L82.3281 10.8125H101.078L99.4062 17.0625H80.6562L80.2344 18.625H91.1719L89.5 24.875H72.3125L78.1719 3H95.3594Z" fill="white"/>
<path d="M101.5 9.25L101.078 10.8125H107.328C108.37 10.8125 108.964 10.5521 109.109 10.0312C109.245 9.51042 108.792 9.25 107.75 9.25H101.5ZM99.4062 17.0625L97.3125 24.875L89.3906 31.125L96.9219 3H109.422C114.63 3 116.599 5.36458 115.328 10.0938C114.089 14.7396 111.385 17.0625 107.219 17.0625L111.375 24.875H103.562L99.4062 17.0625Z" fill="white"/>
<path d="M122.844 17.0625C117.635 17.0625 115.667 14.6979 116.938 9.96875C118.177 5.32292 121.401 3 126.609 3H139.109L137.438 9.25H124.938C123.896 9.25 123.312 9.48958 123.188 9.96875C123.031 10.5312 123.474 10.8125 124.516 10.8125H129.203C134.411 10.8125 136.396 13.1354 135.156 17.7812C133.885 22.5104 130.646 24.875 125.438 24.875H116.062L117.734 18.625H127.109C128.151 18.625 128.75 18.3438 128.906 17.7812C129.031 17.3021 128.573 17.0625 127.531 17.0625H122.844Z" fill="white"/>
<path d="M154.938 13.9375L148.875 24.875H142.625L140.672 3H146.922L148.266 15.5L154.734 3H160.984L160.766 15.5L168.797 3H175.047L161.375 24.875H155.125L154.938 13.9375Z" fill="white"/>
<path d="M179.219 24.875C176.198 24.875 173.906 23.8073 172.344 21.6719C170.781 19.5365 170.406 16.9583 171.219 13.9375C172.021 10.9167 173.776 8.33854 176.484 6.20312C179.193 4.06771 182.057 3 185.078 3C188.099 3 190.391 4.06771 191.953 6.20312C193.516 8.33854 193.896 10.9167 193.094 13.9375C192.281 16.9583 190.521 19.5365 187.812 21.6719C185.104 23.8073 182.24 24.875 179.219 24.875ZM180.891 18.625C182.182 18.625 183.406 18.1667 184.562 17.25C185.729 16.3333 186.49 15.2292 186.844 13.9375C187.188 12.6458 187.021 11.5417 186.344 10.625C185.677 9.70833 184.698 9.25 183.406 9.25C182.115 9.25 180.885 9.70833 179.719 10.625C178.562 11.5417 177.812 12.6458 177.469 13.9375C177.115 15.2292 177.271 16.3333 177.938 17.25C178.615 18.1667 179.599 18.625 180.891 18.625Z" fill="white"/>
<path d="M202.156 9.25L201.734 10.8125H207.984C209.026 10.8125 209.62 10.5521 209.766 10.0312C209.901 9.51042 209.448 9.25 208.406 9.25H202.156ZM200.062 17.0625L197.969 24.875L190.047 31.125L197.578 3H210.078C215.286 3 217.255 5.36458 215.984 10.0938C214.745 14.7396 212.042 17.0625 207.875 17.0625L212.031 24.875H204.219L200.062 17.0625Z" fill="white"/>
<path d="M213.594 24.875L219.453 3H230.391C236.641 3 238.792 6.64583 236.844 13.9375C234.885 21.2292 230.781 24.875 224.531 24.875H213.594ZM224.031 9.25L221.516 18.625H226.203C228.286 18.625 229.75 17.0625 230.594 13.9375C231.427 10.8125 230.802 9.25 228.719 9.25H224.031Z" fill="white"/>
<path d="M12.1094 3V0H9.80672L9.21138 2.22436L12.1094 3ZM18.3594 3L21.2571 3.77659L22.2692 0L18.3594 0V3ZM16.2656 10.8125L13.3679 10.0359L12.3558 13.8125H16.2656V10.8125ZM24.0781 10.8125V13.8125H26.38L26.9759 11.5891L24.0781 10.8125ZM26.1719 3V0H23.87L23.2741 2.22341L26.1719 3ZM32.4219 3L35.3197 3.77621L36.3312 0L32.4219 0V3ZM26.5625 24.875V27.875H28.8647L29.4603 25.6512L26.5625 24.875ZM20.3125 24.875L17.4148 24.0984L16.4026 27.875H20.3125V24.875ZM22.4062 17.0625L25.304 17.8391L26.3161 14.0625H22.4062V17.0625ZM14.5938 17.0625V14.0625H12.2919L11.696 16.2859L14.5938 17.0625ZM12.5 24.875L14.09 27.419L15.0919 26.7928L15.3977 25.6516L12.5 24.875ZM5 29.5625L2.102 28.7869L0.133469 36.1418L6.59 32.1065L5 29.5625ZM31.0625 13.9375L33.9596 14.7167L33.962 14.7074L31.0625 13.9375ZM52.9375 13.9375L55.8346 14.7167L55.837 14.7074L52.9375 13.9375ZM44.4062 17.25L42.5528 14.891L42.5425 14.8992L44.4062 17.25ZM46.6875 13.9375L49.5807 14.7308L49.5837 14.7199L49.5866 14.709L46.6875 13.9375ZM46.1875 10.625L43.7613 12.3895L43.7678 12.3985L43.7744 12.4074L46.1875 10.625ZM39.5625 10.625L37.709 8.26602L37.6988 8.27415L39.5625 10.625ZM37.3125 13.9375L40.2057 14.7308L40.2087 14.7199L40.2116 14.709L37.3125 13.9375ZM37.7812 17.25L35.355 19.0145L35.3616 19.0235L35.3682 19.0324L37.7812 17.25ZM56.6875 24.875L53.6994 25.1418L53.9434 27.875H56.6875V24.875ZM54.7344 3V0H51.4546L51.7463 3.2668L54.7344 3ZM60.9844 3L63.9672 2.67935L63.6792 0L60.9844 0V3ZM62.3281 15.5L59.3453 15.8207L60.2544 24.2775L64.8521 17.1216L62.3281 15.5ZM70.3594 3V0H68.721L67.8354 1.37837L70.3594 3ZM76.6094 3L79.1534 4.59L82.0221 0L76.6094 0V3ZM62.9375 24.875V27.875H64.6002L65.4815 26.465L62.9375 24.875ZM95.3594 3L98.2575 3.77524L99.2674 0L95.3594 0V3ZM93.6875 9.25V12.25H95.9905L96.5856 10.0252L93.6875 9.25ZM82.75 9.25V6.25H80.4526L79.8537 8.468L82.75 9.25ZM82.3281 10.8125L79.4318 10.0305L78.4107 13.8125H82.3281V10.8125ZM80.6562 17.0625V14.0625H78.3588L77.76 16.2805L80.6562 17.0625ZM80.2344 18.625L77.3381 17.843L76.3169 21.625H80.2344V18.625ZM91.1719 18.625L94.07 19.4002L95.0799 15.625H91.1719V18.625ZM89.5 24.875V27.875H91.803L92.3981 25.6502L89.5 24.875ZM72.3125 24.875L69.4147 24.0988L68.4032 27.875H72.3125V24.875ZM78.1719 3V0H75.8697L75.274 2.22379L78.1719 3ZM101.5 9.25V6.25H99.2026L98.6037 8.468L101.5 9.25ZM109.109 10.0312L111.998 10.8401L112.006 10.8132L112.013 10.7862L109.109 10.0312ZM97.3125 24.875L99.1707 27.2302L99.9525 26.6135L100.21 25.6516L97.3125 24.875ZM89.3906 31.125L86.4927 30.349L84.1557 39.0764L91.2488 33.4802L89.3906 31.125ZM96.9219 3V0H94.6195L94.024 2.22401L96.9219 3ZM115.328 10.0938L112.431 9.3152L112.43 9.32036L115.328 10.0938ZM107.219 17.0625V14.0625H102.225L104.57 18.4715L107.219 17.0625ZM111.375 24.875V27.875H116.369L114.024 23.466L111.375 24.875ZM103.562 24.875L100.914 26.284L101.76 27.875H103.562V24.875ZM116.938 9.96875L119.835 10.7473L119.836 10.7421L116.938 9.96875ZM139.109 3L142.007 3.77524L143.017 0L139.109 0V3ZM137.438 9.25V12.25H139.74L140.336 10.0252L137.438 9.25ZM123.188 9.96875L126.078 10.7717L126.084 10.7489L126.09 10.726L123.188 9.96875ZM135.156 17.7812L138.053 18.5598L138.055 18.5546L135.156 17.7812ZM116.062 24.875L113.164 24.0998L112.155 27.875H116.062V24.875ZM117.734 18.625V15.625H115.431L114.836 17.8498L117.734 18.625ZM128.906 17.7812L131.797 18.5842L131.803 18.5614L131.809 18.5385L128.906 17.7812ZM154.938 13.9375L157.937 13.8861L157.745 2.68418L152.314 12.4831L154.938 13.9375ZM148.875 24.875V27.875H150.642L151.499 26.3294L148.875 24.875ZM142.625 24.875L139.637 25.1418L139.881 27.875H142.625V24.875ZM140.672 3V0H137.392L137.684 3.2668L140.672 3ZM146.922 3L149.905 2.67935L149.617 0L146.922 0V3ZM148.266 15.5L145.283 15.8207L146.348 25.7323L150.93 16.8788L148.266 15.5ZM154.734 3V0H152.909L152.07 1.62119L154.734 3ZM160.984 3L163.984 3.05249L164.037 0L160.984 0V3ZM160.766 15.5L157.766 15.4475L157.581 26.0061L163.29 17.1216L160.766 15.5ZM168.797 3V0H167.159L166.273 1.37837L168.797 3ZM175.047 3L177.591 4.59L180.46 0L175.047 0V3ZM161.375 24.875V27.875H163.038L163.919 26.465L161.375 24.875ZM155.125 24.875L152.125 24.9264L152.176 27.875H155.125V24.875ZM171.219 13.9375L174.116 14.7167L174.118 14.7074L171.219 13.9375ZM193.094 13.9375L195.991 14.7167L195.993 14.7074L193.094 13.9375ZM184.562 17.25L182.709 14.891L182.699 14.8992L184.562 17.25ZM186.844 13.9375L189.737 14.7308L189.74 14.7199L189.743 14.709L186.844 13.9375ZM186.344 10.625L183.918 12.3895L183.924 12.3985L183.931 12.4074L186.344 10.625ZM179.719 10.625L177.865 8.26602L177.855 8.27415L179.719 10.625ZM177.469 13.9375L180.362 14.7308L180.365 14.7199L180.368 14.709L177.469 13.9375ZM177.938 17.25L175.511 19.0145L175.518 19.0235L175.524 19.0324L177.938 17.25ZM202.156 9.25V6.25H199.859L199.26 8.468L202.156 9.25ZM201.734 10.8125L198.838 10.0305L197.817 13.8125H201.734V10.8125ZM209.766 10.0312L212.655 10.8401L212.662 10.8132L212.669 10.7862L209.766 10.0312ZM200.062 17.0625L202.711 15.6535L199.135 8.93252L197.165 16.2859L200.062 17.0625ZM197.969 24.875L199.827 27.2302L200.609 26.6135L200.866 25.6516L197.969 24.875ZM190.047 31.125L187.149 30.349L184.812 39.0764L191.905 33.4802L190.047 31.125ZM197.578 3V0H195.276L194.68 2.22401L197.578 3ZM215.984 10.0938L213.087 9.3152L213.086 9.32036L215.984 10.0938ZM207.875 17.0625V14.0625H202.881L205.226 18.4715L207.875 17.0625ZM212.031 24.875V27.875H217.025L214.68 23.466L212.031 24.875ZM204.219 24.875L201.57 26.284L202.417 27.875H204.219V24.875ZM213.594 24.875L210.696 24.0988L209.684 27.875H213.594V24.875ZM219.453 3V0H217.151L216.555 2.22379L219.453 3ZM236.844 13.9375L239.741 14.7156L239.742 14.7118L236.844 13.9375ZM224.031 9.25V6.25H221.73L221.134 8.4725L224.031 9.25ZM221.516 18.625L218.618 17.8475L217.604 21.625H221.516V18.625ZM230.594 13.9375L233.49 14.7195L233.492 14.7105L230.594 13.9375ZM12.1094 6H18.3594V0H12.1094V6ZM15.4616 2.22341L13.3679 10.0359L19.1634 11.5891L21.2571 3.77659L15.4616 2.22341ZM16.2656 13.8125H24.0781V7.8125H16.2656V13.8125ZM26.9759 11.5891L29.0696 3.77659L23.2741 2.22341L21.1804 10.0359L26.9759 11.5891ZM26.1719 6H32.4219V0H26.1719V6ZM29.524 2.22379L23.6647 24.0988L29.4603 25.6512L35.3197 3.77621L29.524 2.22379ZM26.5625 21.875H20.3125V27.875H26.5625V21.875ZM23.2102 25.6516L25.304 17.8391L19.5085 16.2859L17.4148 24.0984L23.2102 25.6516ZM22.4062 14.0625H14.5938V20.0625H22.4062V14.0625ZM11.696 16.2859L9.60226 24.0984L15.3977 25.6516L17.4915 17.8391L11.696 16.2859ZM10.91 22.331L3.41 27.0185L6.59 32.1065L14.09 27.419L10.91 22.331ZM7.898 30.3381L15.0074 3.77564L9.21138 2.22436L2.102 28.7869L7.898 30.3381ZM39.0625 21.875C36.843 21.875 35.5202 21.1462 34.6086 19.9003L29.7664 23.4434C31.9798 26.4684 35.2403 27.875 39.0625 27.875V21.875ZM34.6086 19.9003C33.6837 18.6363 33.3353 17.0377 33.9595 14.7167L28.1655 13.1583C27.1647 16.879 27.5663 20.4366 29.7664 23.4434L34.6086 19.9003ZM33.962 14.7074C34.5802 12.3792 35.9314 10.3362 38.1856 8.55893L34.4707 3.84732C31.3082 6.34083 29.149 9.45413 28.163 13.1676L33.962 14.7074ZM38.1856 8.55893C40.4435 6.77866 42.6689 6 44.9219 6V0C41.1332 0 37.6294 1.35676 34.4707 3.84732L38.1856 8.55893ZM44.9219 6C47.1414 6 48.4642 6.72877 49.3758 7.97465L54.218 4.4316C52.0046 1.40665 48.744 0 44.9219 0V6ZM49.3758 7.97465C50.3036 9.24273 50.6545 10.8458 50.038 13.1676L55.837 14.7074C56.8247 10.9876 56.4151 7.43436 54.218 4.4316L49.3758 7.97465ZM50.0405 13.1583C49.413 15.4912 48.0547 17.5374 45.7988 19.3161L49.5137 24.0277C52.6745 21.5356 54.837 18.4255 55.8345 14.7167L50.0405 13.1583ZM45.7988 19.3161C43.5409 21.0963 41.3155 21.875 39.0625 21.875V27.875C42.8512 27.875 46.355 26.5182 49.5137 24.0277L45.7988 19.3161ZM40.7344 21.625C42.7975 21.625 44.6628 20.875 46.27 19.6008L42.5425 14.8992C41.8372 15.4583 41.2546 15.625 40.7344 15.625V21.625ZM46.2597 19.609C47.8744 18.3403 49.0383 16.709 49.5807 14.7308L43.7943 13.1442C43.6284 13.7493 43.2714 14.3264 42.5528 14.891L46.2597 19.609ZM49.5866 14.709C50.1194 12.7069 49.9161 10.6235 48.6006 8.8426L43.7744 12.4074C43.8131 12.4598 43.9431 12.5848 43.7884 13.166L49.5866 14.709ZM48.6137 8.86048C47.2977 7.05098 45.3476 6.25 43.25 6.25V12.25C43.5407 12.25 43.6598 12.3008 43.6813 12.3108C43.6939 12.3167 43.6998 12.321 43.7055 12.3257C43.7117 12.3309 43.7313 12.3482 43.7613 12.3895L48.6137 8.86048ZM43.25 6.25C41.1884 6.25 39.3219 6.99881 37.709 8.26605L41.416 12.984C42.1365 12.4179 42.7283 12.25 43.25 12.25V6.25ZM37.6988 8.27415C36.0918 9.54814 34.9406 11.1851 34.4134 13.166L40.2116 14.709C40.3719 14.1066 40.7207 13.5352 41.4262 12.9758L37.6988 8.27415ZM34.4193 13.1442C33.8729 15.1368 34.052 17.2229 35.355 19.0145L40.2075 15.4855C40.1578 15.4172 40.1427 15.3721 40.1345 15.314C40.1241 15.2405 40.1156 15.0595 40.2057 14.7308L34.4193 13.1442ZM35.3682 19.0324C36.6922 20.8249 38.6364 21.625 40.7344 21.625V15.625C40.4441 15.625 40.3211 15.5744 40.2936 15.5616C40.2779 15.5543 40.2685 15.5479 40.2594 15.5404C40.2497 15.5324 40.2271 15.5119 40.1943 15.4676L35.3682 19.0324ZM59.6756 24.6082L57.7225 2.7332L51.7463 3.2668L53.6994 25.1418L59.6756 24.6082ZM54.7344 6H60.9844V0H54.7344V6ZM58.0016 3.32065L59.3453 15.8207L65.3109 15.1793L63.9672 2.67935L58.0016 3.32065ZM64.8521 17.1216L72.8833 4.62163L67.8354 1.37837L59.8042 13.8784L64.8521 17.1216ZM70.3594 6H76.6094V0H70.3594V6ZM74.0654 1.41L60.3935 23.285L65.4815 26.465L79.1534 4.59L74.0654 1.41ZM62.9375 21.875H56.6875V27.875H62.9375V21.875ZM92.4613 2.22476L90.7894 8.47476L96.5856 10.0252L98.2575 3.77524L92.4613 2.22476ZM93.6875 6.25H82.75V12.25H93.6875V6.25ZM79.8537 8.468L79.4318 10.0305L85.2244 11.5945L85.6463 10.032L79.8537 8.468ZM82.3281 13.8125H101.078V7.8125H82.3281V13.8125ZM98.18 10.0373L96.5081 16.2873L102.304 17.8377L103.976 11.5877L98.18 10.0373ZM99.4062 14.0625H80.6562V20.0625H99.4062V14.0625ZM77.76 16.2805L77.3381 17.843L83.1307 19.407L83.5525 17.8445L77.76 16.2805ZM80.2344 21.625H91.1719V15.625H80.2344V21.625ZM88.2738 17.8498L86.6019 24.0998L92.3981 25.6502L94.07 19.4002L88.2738 17.8498ZM89.5 21.875H72.3125V27.875H89.5V21.875ZM75.2103 25.6512L81.0697 3.77621L75.274 2.22379L69.4147 24.0988L75.2103 25.6512ZM78.1719 6H95.3594V0H78.1719V6ZM98.6037 8.468L98.1818 10.0305L103.974 11.5945L104.396 10.032L98.6037 8.468ZM101.078 13.8125H107.328V7.8125H101.078V13.8125ZM107.328 13.8125C108.041 13.8125 108.922 13.7321 109.76 13.3646C110.699 12.9526 111.634 12.1404 111.998 10.8401L106.22 9.22236C106.315 8.88593 106.493 8.56894 106.737 8.31062C106.971 8.06397 107.205 7.93337 107.35 7.86982C107.594 7.76272 107.656 7.8125 107.328 7.8125V13.8125ZM112.013 10.7862C112.164 10.2046 112.223 9.40301 111.88 8.55933C111.532 7.70552 110.917 7.16113 110.366 6.84427C109.42 6.30083 108.37 6.25 107.75 6.25V12.25C107.897 12.25 107.939 12.26 107.906 12.2543C107.89 12.2515 107.67 12.2153 107.376 12.0464C107.051 11.8597 106.589 11.4781 106.322 10.8196C106.058 10.1712 106.122 9.59751 106.206 9.27635L112.013 10.7862ZM107.75 6.25H101.5V12.25H107.75V6.25ZM96.5085 16.2859L94.4148 24.0984L100.21 25.6516L102.304 17.8391L96.5085 16.2859ZM95.4543 22.5198L87.5324 28.7698L91.2488 33.4802L99.1707 27.2302L95.4543 22.5198ZM92.2885 31.901L99.8198 3.77599L94.024 2.22401L86.4927 30.349L92.2885 31.901ZM96.9219 6H109.422V0H96.9219V6ZM109.422 6C111.732 6 112.38 6.54954 112.499 6.69299C112.559 6.76485 112.966 7.323 112.431 9.3152L118.225 10.8723C118.961 8.13533 119.019 5.1466 117.11 2.85388C115.261 0.632755 112.32 0 109.422 0V6ZM112.43 9.32036C111.912 11.2586 111.174 12.3937 110.416 13.045C109.698 13.6617 108.713 14.0625 107.219 14.0625V20.0625C109.892 20.0625 112.341 19.3018 114.326 17.5956C116.272 15.924 117.504 13.5747 118.227 10.8671L112.43 9.32036ZM104.57 18.4715L108.726 26.284L114.024 23.466L109.867 15.6535L104.57 18.4715ZM111.375 21.875H103.562V27.875H111.375V21.875ZM106.211 23.466L102.055 15.6535L96.7577 18.4715L100.914 26.284L106.211 23.466ZM122.844 14.0625C120.534 14.0625 119.886 13.513 119.766 13.3695C119.707 13.2976 119.299 12.7395 119.835 10.7473L114.04 9.1902C113.305 11.9272 113.247 14.9159 115.155 17.2086C117.005 19.4297 119.945 20.0625 122.844 20.0625V14.0625ZM119.836 10.7421C120.316 8.94255 121.1 7.85265 122.039 7.17619C123.002 6.48209 124.44 6 126.609 6V0C123.57 0 120.792 0.679366 118.531 2.30818C116.246 3.95464 114.798 6.34911 114.039 9.19536L119.836 10.7421ZM126.609 6H139.109V0H126.609V6ZM136.211 2.22476L134.539 8.47476L140.336 10.0252L142.007 3.77524L136.211 2.22476ZM137.438 6.25H124.938V12.25H137.438V6.25ZM124.938 6.25C124.248 6.25 123.393 6.32047 122.579 6.65463C121.678 7.02471 120.649 7.81597 120.285 9.21148L126.09 10.726C125.986 11.1251 125.777 11.4828 125.504 11.7601C125.247 12.0205 124.996 12.1481 124.859 12.2047C124.628 12.2993 124.586 12.25 124.938 12.25V6.25ZM120.297 9.16582C120.146 9.70906 120.06 10.4731 120.342 11.3023C120.635 12.166 121.212 12.7645 121.794 13.1338C122.777 13.7583 123.889 13.8125 124.516 13.8125V7.8125C124.378 7.8125 124.352 7.80218 124.405 7.81221C124.442 7.8192 124.693 7.86732 125.011 8.06935C125.371 8.29801 125.802 8.72068 126.023 9.37344C126.233 9.99176 126.151 10.5097 126.078 10.7717L120.297 9.16582ZM124.516 13.8125H129.203V7.8125H124.516V13.8125ZM129.203 13.8125C131.523 13.8125 132.191 14.3565 132.317 14.5033C132.364 14.5588 132.774 15.0741 132.258 17.0079L138.055 18.5546C138.778 15.8426 138.816 12.8735 136.879 10.6061C135.02 8.42992 132.091 7.8125 129.203 7.8125V13.8125ZM132.259 17.0027C131.761 18.8571 130.958 19.9828 130.005 20.6784C129.033 21.3877 127.596 21.875 125.438 21.875V27.875C128.488 27.875 131.274 27.18 133.542 25.5247C135.829 23.8557 137.281 21.4346 138.053 18.5598L132.259 17.0027ZM125.438 21.875H116.062V27.875H125.438V21.875ZM118.961 25.6502L120.632 19.4002L114.836 17.8498L113.164 24.0998L118.961 25.6502ZM117.734 21.625H127.109V15.625H117.734V21.625ZM127.109 21.625C127.845 21.625 128.753 21.5345 129.615 21.1296C130.588 20.6727 131.452 19.8259 131.797 18.5842L126.016 16.9783C126.096 16.6889 126.248 16.3986 126.471 16.1496C126.687 15.9084 126.91 15.771 127.065 15.6985C127.328 15.5749 127.416 15.625 127.109 15.625V21.625ZM131.809 18.5385C131.971 17.918 132.014 17.0714 131.612 16.2046C131.218 15.3544 130.567 14.8557 130.046 14.5835C129.138 14.1088 128.14 14.0625 127.531 14.0625V20.0625C127.687 20.0625 127.744 20.0722 127.73 20.0699C127.72 20.0682 127.674 20.0605 127.602 20.0391C127.531 20.0181 127.412 19.9771 127.266 19.9009C126.975 19.7485 126.48 19.3995 126.169 18.729C125.85 18.0419 125.904 17.4049 126.003 17.024L131.809 18.5385ZM127.531 14.0625H122.844V20.0625H127.531V14.0625ZM152.314 12.4831L146.251 23.4206L151.499 26.3294L157.561 15.3919L152.314 12.4831ZM148.875 21.875H142.625V27.875H148.875V21.875ZM145.613 24.6082L143.66 2.7332L137.684 3.2668L139.637 25.1418L145.613 24.6082ZM140.672 6H146.922V0H140.672V6ZM143.939 3.32065L145.283 15.8207L151.248 15.1793L149.905 2.67935L143.939 3.32065ZM150.93 16.8788L157.399 4.37881L152.07 1.62119L145.601 14.1212L150.93 16.8788ZM154.734 6H160.984V0H154.734V6ZM157.985 2.94751L157.766 15.4475L163.765 15.5525L163.984 3.05249L157.985 2.94751ZM163.29 17.1216L171.321 4.62163L166.273 1.37837L158.242 13.8784L163.29 17.1216ZM168.797 6H175.047V0H168.797V6ZM172.503 1.41L158.831 23.285L163.919 26.465L177.591 4.59L172.503 1.41ZM161.375 21.875H155.125V27.875H161.375V21.875ZM158.125 24.8236L157.937 13.8861L151.938 13.9889L152.125 24.9264L158.125 24.8236ZM179.219 21.875C176.999 21.875 175.676 21.1462 174.765 19.9003L169.923 23.4434C172.136 26.4684 175.397 27.875 179.219 27.875V21.875ZM174.765 19.9003C173.84 18.6363 173.492 17.0377 174.116 14.7167L168.322 13.1583C167.321 16.879 167.723 20.4366 169.923 23.4434L174.765 19.9003ZM174.118 14.7074C174.736 12.3792 176.088 10.3362 178.342 8.55893L174.627 3.84732C171.464 6.34083 169.305 9.45413 168.319 13.1676L174.118 14.7074ZM178.342 8.55893C180.6 6.77866 182.825 6 185.078 6V0C181.289 0 177.786 1.35676 174.627 3.84732L178.342 8.55893ZM185.078 6C187.298 6 188.62 6.72877 189.532 7.97465L194.374 4.4316C192.161 1.40665 188.9 0 185.078 0V6ZM189.532 7.97465C190.46 9.24273 190.811 10.8458 190.194 13.1676L195.993 14.7074C196.981 10.9876 196.571 7.43436 194.374 4.4316L189.532 7.97465ZM190.197 13.1583C189.569 15.4912 188.211 17.5374 185.955 19.3161L189.67 24.0277C192.831 21.5356 194.993 18.4255 195.991 14.7167L190.197 13.1583ZM185.955 19.3161C183.697 21.0963 181.472 21.875 179.219 21.875V27.875C183.007 27.875 186.511 26.5182 189.67 24.0277L185.955 19.3161ZM180.891 21.625C182.954 21.625 184.819 20.875 186.426 19.6008L182.699 14.8992C181.993 15.4583 181.411 15.625 180.891 15.625V21.625ZM186.416 19.609C188.031 18.3403 189.195 16.709 189.737 14.7308L183.951 13.1442C183.785 13.7493 183.428 14.3264 182.709 14.891L186.416 19.609ZM189.743 14.709C190.276 12.7069 190.072 10.6235 188.757 8.8426L183.931 12.4074C183.969 12.4598 184.099 12.5848 183.945 13.166L189.743 14.709ZM188.77 8.86048C187.454 7.05098 185.504 6.25 183.406 6.25V12.25C183.697 12.25 183.816 12.3008 183.838 12.3108C183.85 12.3167 183.856 12.321 183.862 12.3257C183.868 12.3309 183.888 12.3482 183.918 12.3895L188.77 8.86048ZM183.406 6.25C181.345 6.25 179.478 6.99881 177.865 8.26605L181.572 12.984C182.293 12.4179 182.885 12.25 183.406 12.25V6.25ZM177.855 8.27415C176.248 9.54814 175.097 11.1851 174.57 13.166L180.368 14.709C180.528 14.1066 180.877 13.5352 181.582 12.9758L177.855 8.27415ZM174.576 13.1442C174.029 15.1368 174.208 17.2229 175.511 19.0145L180.364 15.4855C180.314 15.4172 180.299 15.3721 180.291 15.314C180.28 15.2405 180.272 15.0595 180.362 14.7308L174.576 13.1442ZM175.524 19.0324C176.848 20.8249 178.793 21.625 180.891 21.625V15.625C180.6 15.625 180.477 15.5744 180.45 15.5616C180.434 15.5543 180.425 15.5479 180.416 15.5404C180.406 15.5324 180.383 15.5119 180.351 15.4676L175.524 19.0324ZM199.26 8.468L198.838 10.0305L204.631 11.5945L205.053 10.032L199.26 8.468ZM201.734 13.8125H207.984V7.8125H201.734V13.8125ZM207.984 13.8125C208.698 13.8125 209.578 13.7321 210.416 13.3646C211.355 12.9526 212.29 12.1404 212.655 10.8401L206.877 9.22236C206.971 8.88593 207.149 8.56894 207.394 8.31062C207.627 8.06397 207.861 7.93337 208.006 7.86982C208.25 7.76272 208.313 7.8125 207.984 7.8125V13.8125ZM212.669 10.7862C212.82 10.2046 212.879 9.40301 212.536 8.55933C212.189 7.70552 211.574 7.16113 211.022 6.84427C210.077 6.30083 209.026 6.25 208.406 6.25V12.25C208.553 12.25 208.595 12.26 208.562 12.2543C208.546 12.2515 208.327 12.2153 208.032 12.0464C207.708 11.8597 207.246 11.4781 206.978 10.8196C206.714 10.1712 206.779 9.59751 206.862 9.27635L212.669 10.7862ZM208.406 6.25H202.156V12.25H208.406V6.25ZM197.165 16.2859L195.071 24.0984L200.866 25.6516L202.96 17.8391L197.165 16.2859ZM196.111 22.5198L188.189 28.7698L191.905 33.4802L199.827 27.2302L196.111 22.5198ZM192.945 31.901L200.476 3.77599L194.68 2.22401L187.149 30.349L192.945 31.901ZM197.578 6H210.078V0H197.578V6ZM210.078 6C212.388 6 213.036 6.54954 213.155 6.69299C213.215 6.76485 213.623 7.323 213.087 9.3152L218.882 10.8723C219.617 8.13533 219.675 5.1466 217.766 2.85388C215.917 0.632755 212.977 0 210.078 0V6ZM213.086 9.32036C212.569 11.2586 211.83 12.3937 211.072 13.045C210.354 13.6617 209.369 14.0625 207.875 14.0625V20.0625C210.548 20.0625 212.997 19.3018 214.983 17.5956C216.928 15.924 218.161 13.5747 218.883 10.8671L213.086 9.32036ZM205.226 18.4715L209.383 26.284L214.68 23.466L210.524 15.6535L205.226 18.4715ZM212.031 21.875H204.219V27.875H212.031V21.875ZM206.867 23.466L202.711 15.6535L197.414 18.4715L201.57 26.284L206.867 23.466ZM216.492 25.6512L222.351 3.77621L216.555 2.22379L210.696 24.0988L216.492 25.6512ZM219.453 6H230.391V0H219.453V6ZM230.391 6C233.005 6 233.803 6.74204 234.108 7.25882C234.552 8.01239 234.861 9.73506 233.945 13.1632L239.742 14.7118C240.774 10.8483 240.982 7.10219 239.275 4.20993C237.429 1.08088 234.026 0 230.391 0V6ZM233.946 13.1594C233.064 16.4447 231.782 18.5849 230.304 19.8978C228.878 21.1653 227.031 21.875 224.531 21.875V27.875C228.282 27.875 231.612 26.7618 234.289 24.3835C236.916 22.0505 238.665 18.7219 239.741 14.7156L233.946 13.1594ZM224.531 21.875H213.594V27.875H224.531V21.875ZM221.134 8.4725L218.618 17.8475L224.413 19.4025L226.929 10.0275L221.134 8.4725ZM221.516 21.625H226.203V15.625H221.516V21.625ZM226.203 21.625C228.1 21.625 229.772 20.8719 231.053 19.504C232.249 18.2268 233 16.5338 233.49 14.7195L227.697 13.1555C227.344 14.4662 226.941 15.1169 226.674 15.4023C226.491 15.5969 226.39 15.625 226.203 15.625V21.625ZM233.492 14.7105C233.945 13.0142 234.226 11.0329 233.535 9.3077C233.15 8.34301 232.475 7.50265 231.507 6.94441C230.585 6.41278 229.597 6.25 228.719 6.25V12.25C228.883 12.25 228.753 12.2825 228.509 12.1415C228.383 12.0691 228.26 11.9686 228.155 11.8447C228.052 11.7229 227.994 11.6103 227.965 11.536C227.913 11.4069 227.962 11.4367 227.948 11.7535C227.935 12.0594 227.867 12.5199 227.695 13.1645L233.492 14.7105ZM228.719 6.25H224.031V12.25H228.719V6.25Z" fill="url(#paint0_linear_89_11)" mask="url(#path-1-outside-1_89_11)"/>
<mask id="path-3-outside-2_89_11" maskUnits="userSpaceOnUse" x="1" y="1" width="239" height="36" fill="black">
<rect fill="white" x="1" y="1" width="239" height="36"/>
<path d="M12.1094 3H18.3594L16.2656 10.8125H24.0781L26.1719 3H32.4219L26.5625 24.875H20.3125L22.4062 17.0625H14.5938L12.5 24.875L5 29.5625L12.1094 3Z"/>
<path d="M39.0625 24.875C36.0417 24.875 33.75 23.8073 32.1875 21.6719C30.625 19.5365 30.25 16.9583 31.0625 13.9375C31.8646 10.9167 33.6198 8.33854 36.3281 6.20312C39.0365 4.06771 41.901 3 44.9219 3C47.9427 3 50.2344 4.06771 51.7969 6.20312C53.3594 8.33854 53.7396 10.9167 52.9375 13.9375C52.125 16.9583 50.3646 19.5365 47.6562 21.6719C44.9479 23.8073 42.0833 24.875 39.0625 24.875ZM40.7344 18.625C42.026 18.625 43.25 18.1667 44.4062 17.25C45.5729 16.3333 46.3333 15.2292 46.6875 13.9375C47.0312 12.6458 46.8646 11.5417 46.1875 10.625C45.5208 9.70833 44.5417 9.25 43.25 9.25C41.9583 9.25 40.7292 9.70833 39.5625 10.625C38.4062 11.5417 37.6562 12.6458 37.3125 13.9375C36.9583 15.2292 37.1146 16.3333 37.7812 17.25C38.4583 18.1667 39.4427 18.625 40.7344 18.625Z"/>
<path d="M56.6875 24.875L54.7344 3H60.9844L62.3281 15.5L70.3594 3H76.6094L62.9375 24.875H56.6875Z"/>
<path d="M95.3594 3L93.6875 9.25H82.75L82.3281 10.8125H101.078L99.4062 17.0625H80.6562L80.2344 18.625H91.1719L89.5 24.875H72.3125L78.1719 3H95.3594Z"/>
<path d="M101.5 9.25L101.078 10.8125H107.328C108.37 10.8125 108.964 10.5521 109.109 10.0312C109.245 9.51042 108.792 9.25 107.75 9.25H101.5ZM99.4062 17.0625L97.3125 24.875L89.3906 31.125L96.9219 3H109.422C114.63 3 116.599 5.36458 115.328 10.0938C114.322 13.864 112.352 16.1044 109.419 16.815C108.737 16.98 108.004 17.0625 107.219 17.0625L111.375 24.875H103.562L99.4062 17.0625Z"/>
<path d="M122.844 17.0625C117.635 17.0625 115.667 14.6979 116.938 9.96875C118.177 5.32292 121.401 3 126.609 3H139.109L137.438 9.25H124.938C123.896 9.25 123.312 9.48958 123.188 9.96875C123.031 10.5312 123.474 10.8125 124.516 10.8125H129.203C134.411 10.8125 136.396 13.1354 135.156 17.7812C133.885 22.5104 130.646 24.875 125.438 24.875H116.062L117.734 18.625H127.109C128.151 18.625 128.75 18.3438 128.906 17.7812C129.031 17.3021 128.573 17.0625 127.531 17.0625H122.844Z"/>
<path d="M154.938 13.9375L148.875 24.875H142.625L140.672 3H146.922L148.266 15.5L154.734 3H160.984L160.766 15.5L168.797 3H175.047L161.375 24.875H155.125L154.938 13.9375Z"/>
<path d="M179.219 24.875C176.198 24.875 173.906 23.8073 172.344 21.6719C170.781 19.5365 170.406 16.9583 171.219 13.9375C172.021 10.9167 173.776 8.33854 176.484 6.20312C179.193 4.06771 182.057 3 185.078 3C188.099 3 190.391 4.06771 191.953 6.20312C193.516 8.33854 193.896 10.9167 193.094 13.9375C192.281 16.9583 190.521 19.5365 187.812 21.6719C185.104 23.8073 182.24 24.875 179.219 24.875ZM180.891 18.625C182.182 18.625 183.406 18.1667 184.562 17.25C185.729 16.3333 186.49 15.2292 186.844 13.9375C187.188 12.6458 187.021 11.5417 186.344 10.625C185.677 9.70833 184.698 9.25 183.406 9.25C182.115 9.25 180.885 9.70833 179.719 10.625C178.562 11.5417 177.812 12.6458 177.469 13.9375C177.115 15.2292 177.271 16.3333 177.938 17.25C178.615 18.1667 179.599 18.625 180.891 18.625Z"/>
<path d="M202.156 9.25L201.734 10.8125H207.984C209.026 10.8125 209.62 10.5521 209.766 10.0312C209.901 9.51042 209.448 9.25 208.406 9.25H202.156ZM200.062 17.0625L197.969 24.875L190.047 31.125L197.578 3H210.078C215.286 3 217.255 5.36458 215.984 10.0938C214.745 14.7396 212.042 17.0625 207.875 17.0625L212.031 24.875H204.219L200.062 17.0625Z"/>
<path d="M213.594 24.875L219.453 3H230.391C236.641 3 238.792 6.64583 236.844 13.9375C234.885 21.2292 230.781 24.875 224.531 24.875H213.594ZM224.031 9.25L221.516 18.625H226.203C228.286 18.625 229.75 17.0625 230.594 13.9375C231.427 10.8125 230.802 9.25 228.719 9.25H224.031Z"/>
</mask>
<path d="M12.1094 3H18.3594L16.2656 10.8125H24.0781L26.1719 3H32.4219L26.5625 24.875H20.3125L22.4062 17.0625H14.5938L12.5 24.875L5 29.5625L12.1094 3Z" fill="white"/>
<path d="M39.0625 24.875C36.0417 24.875 33.75 23.8073 32.1875 21.6719C30.625 19.5365 30.25 16.9583 31.0625 13.9375C31.8646 10.9167 33.6198 8.33854 36.3281 6.20312C39.0365 4.06771 41.901 3 44.9219 3C47.9427 3 50.2344 4.06771 51.7969 6.20312C53.3594 8.33854 53.7396 10.9167 52.9375 13.9375C52.125 16.9583 50.3646 19.5365 47.6562 21.6719C44.9479 23.8073 42.0833 24.875 39.0625 24.875ZM40.7344 18.625C42.026 18.625 43.25 18.1667 44.4062 17.25C45.5729 16.3333 46.3333 15.2292 46.6875 13.9375C47.0312 12.6458 46.8646 11.5417 46.1875 10.625C45.5208 9.70833 44.5417 9.25 43.25 9.25C41.9583 9.25 40.7292 9.70833 39.5625 10.625C38.4062 11.5417 37.6562 12.6458 37.3125 13.9375C36.9583 15.2292 37.1146 16.3333 37.7812 17.25C38.4583 18.1667 39.4427 18.625 40.7344 18.625Z" fill="white"/>
<path d="M56.6875 24.875L54.7344 3H60.9844L62.3281 15.5L70.3594 3H76.6094L62.9375 24.875H56.6875Z" fill="white"/>
<path d="M95.3594 3L93.6875 9.25H82.75L82.3281 10.8125H101.078L99.4062 17.0625H80.6562L80.2344 18.625H91.1719L89.5 24.875H72.3125L78.1719 3H95.3594Z" fill="white"/>
<path d="M101.5 9.25L101.078 10.8125H107.328C108.37 10.8125 108.964 10.5521 109.109 10.0312C109.245 9.51042 108.792 9.25 107.75 9.25H101.5ZM99.4062 17.0625L97.3125 24.875L89.3906 31.125L96.9219 3H109.422C114.63 3 116.599 5.36458 115.328 10.0938C114.322 13.864 112.352 16.1044 109.419 16.815C108.737 16.98 108.004 17.0625 107.219 17.0625L111.375 24.875H103.562L99.4062 17.0625Z" fill="white"/>
<path d="M122.844 17.0625C117.635 17.0625 115.667 14.6979 116.938 9.96875C118.177 5.32292 121.401 3 126.609 3H139.109L137.438 9.25H124.938C123.896 9.25 123.312 9.48958 123.188 9.96875C123.031 10.5312 123.474 10.8125 124.516 10.8125H129.203C134.411 10.8125 136.396 13.1354 135.156 17.7812C133.885 22.5104 130.646 24.875 125.438 24.875H116.062L117.734 18.625H127.109C128.151 18.625 128.75 18.3438 128.906 17.7812C129.031 17.3021 128.573 17.0625 127.531 17.0625H122.844Z" fill="white"/>
<path d="M154.938 13.9375L148.875 24.875H142.625L140.672 3H146.922L148.266 15.5L154.734 3H160.984L160.766 15.5L168.797 3H175.047L161.375 24.875H155.125L154.938 13.9375Z" fill="white"/>
<path d="M179.219 24.875C176.198 24.875 173.906 23.8073 172.344 21.6719C170.781 19.5365 170.406 16.9583 171.219 13.9375C172.021 10.9167 173.776 8.33854 176.484 6.20312C179.193 4.06771 182.057 3 185.078 3C188.099 3 190.391 4.06771 191.953 6.20312C193.516 8.33854 193.896 10.9167 193.094 13.9375C192.281 16.9583 190.521 19.5365 187.812 21.6719C185.104 23.8073 182.24 24.875 179.219 24.875ZM180.891 18.625C182.182 18.625 183.406 18.1667 184.562 17.25C185.729 16.3333 186.49 15.2292 186.844 13.9375C187.188 12.6458 187.021 11.5417 186.344 10.625C185.677 9.70833 184.698 9.25 183.406 9.25C182.115 9.25 180.885 9.70833 179.719 10.625C178.562 11.5417 177.812 12.6458 177.469 13.9375C177.115 15.2292 177.271 16.3333 177.938 17.25C178.615 18.1667 179.599 18.625 180.891 18.625Z" fill="white"/>
<path d="M202.156 9.25L201.734 10.8125H207.984C209.026 10.8125 209.62 10.5521 209.766 10.0312C209.901 9.51042 209.448 9.25 208.406 9.25H202.156ZM200.062 17.0625L197.969 24.875L190.047 31.125L197.578 3H210.078C215.286 3 217.255 5.36458 215.984 10.0938C214.745 14.7396 212.042 17.0625 207.875 17.0625L212.031 24.875H204.219L200.062 17.0625Z" fill="white"/>
<path d="M213.594 24.875L219.453 3H230.391C236.641 3 238.792 6.64583 236.844 13.9375C234.885 21.2292 230.781 24.875 224.531 24.875H213.594ZM224.031 9.25L221.516 18.625H226.203C228.286 18.625 229.75 17.0625 230.594 13.9375C231.427 10.8125 230.802 9.25 228.719 9.25H224.031Z" fill="white"/>
<path d="M12.1094 3V1H10.5743L10.1774 2.48291L12.1094 3ZM18.3594 3L20.2912 3.51773L20.966 1H18.3594V3ZM16.2656 10.8125L14.3338 10.2948L13.659 12.8125H16.2656V10.8125ZM24.0781 10.8125V12.8125H25.6127L26.01 11.3302L24.0781 10.8125ZM26.1719 3V1H24.6373L24.24 2.48227L26.1719 3ZM32.4219 3L34.3538 3.51747L35.0281 1H32.4219V3ZM26.5625 24.875V26.875H28.0973L28.4944 25.3925L26.5625 24.875ZM20.3125 24.875L18.3807 24.3573L17.7059 26.875H20.3125V24.875ZM22.4062 17.0625L24.3381 17.5802L25.0128 15.0625H22.4062V17.0625ZM14.5938 17.0625V15.0625H13.0592L12.6619 16.5448L14.5938 17.0625ZM12.5 24.875L13.56 26.571L14.2279 26.1535L14.4318 25.3927L12.5 24.875ZM5 29.5625L3.068 29.0454L1.75565 33.9487L6.06 31.2585L5 29.5625ZM31.0625 13.9375L32.9939 14.457L32.9955 14.4508L31.0625 13.9375ZM52.9375 13.9375L54.8689 14.457L54.8705 14.4508L52.9375 13.9375ZM44.4062 17.25L43.1706 15.6773L43.1638 15.6828L44.4062 17.25ZM46.6875 13.9375L48.6163 14.4664L48.6183 14.4591L48.6202 14.4519L46.6875 13.9375ZM46.1875 10.625L44.57 11.8013L44.5744 11.8073L44.5788 11.8133L46.1875 10.625ZM39.5625 10.625L38.3268 9.05235L38.32 9.05777L39.5625 10.625ZM37.3125 13.9375L39.2413 14.4664L39.2433 14.4591L39.2452 14.4519L37.3125 13.9375ZM37.7812 17.25L36.1638 18.4263L36.1681 18.4323L36.1725 18.4383L37.7812 17.25ZM56.6875 24.875L54.6954 25.0529L54.8581 26.875H56.6875V24.875ZM54.7344 3V1H52.5478L52.7423 3.17786L54.7344 3ZM60.9844 3L62.9729 2.78623L62.7809 1H60.9844V3ZM62.3281 15.5L60.3396 15.7138L60.9457 21.3517L64.0108 16.5811L62.3281 15.5ZM70.3594 3V1H69.2671L68.6767 1.91891L70.3594 3ZM76.6094 3L78.3054 4.06L80.2179 1H76.6094V3ZM62.9375 24.875V26.875H64.046L64.6335 25.935L62.9375 24.875ZM95.3594 3L97.2914 3.51683L97.9647 1H95.3594V3ZM93.6875 9.25V11.25H95.2228L95.6196 9.76683L93.6875 9.25ZM82.75 9.25V7.25H81.2184L80.8191 8.72867L82.75 9.25ZM82.3281 10.8125L80.3973 10.2912L79.7165 12.8125H82.3281V10.8125ZM80.6562 17.0625V15.0625H79.1246L78.7254 16.5412L80.6562 17.0625ZM80.2344 18.625L78.3035 18.1037L77.6228 20.625H80.2344V18.625ZM91.1719 18.625L93.1039 19.1418L93.7772 16.625H91.1719V18.625ZM89.5 24.875V26.875H91.0353L91.4321 25.3918L89.5 24.875ZM72.3125 24.875L70.3806 24.3575L69.7063 26.875H72.3125V24.875ZM78.1719 3V1H76.6371L76.24 2.48253L78.1719 3ZM101.5 9.25V7.25H99.9684L99.5691 8.72867L101.5 9.25ZM109.109 10.0312L111.035 10.5705L111.04 10.5526L111.045 10.5345L109.109 10.0312ZM97.3125 24.875L98.5513 26.4452L99.0725 26.034L99.2443 25.3927L97.3125 24.875ZM89.3906 31.125L87.4587 30.6077L85.9007 36.4259L90.6294 32.6952L89.3906 31.125ZM96.9219 3V1H95.387L94.9899 2.48267L96.9219 3ZM115.328 10.0938L113.397 9.57472L113.396 9.57816L115.328 10.0938ZM107.219 17.0625V15.0625H103.889L105.453 18.0018L107.219 17.0625ZM111.375 24.875V26.875H114.704L113.141 23.9357L111.375 24.875ZM103.562 24.875L101.797 25.8143L102.361 26.875H103.562V24.875ZM116.938 9.96875L118.869 10.4878L118.87 10.4843L116.938 9.96875ZM139.109 3L141.041 3.51683L141.715 1H139.109V3ZM137.438 9.25V11.25H138.973L139.37 9.76683L137.438 9.25ZM123.188 9.96875L125.115 10.504L125.119 10.4888L125.123 10.4736L123.188 9.96875ZM135.156 17.7812L137.088 18.3003L137.089 18.2968L135.156 17.7812ZM116.062 24.875L114.13 24.3582L113.457 26.875H116.062V24.875ZM117.734 18.625V16.625H116.199L115.802 18.1082L117.734 18.625ZM128.906 17.7812L130.833 18.3165L130.838 18.3013L130.841 18.2861L128.906 17.7812ZM154.938 13.9375L156.937 13.9032L156.809 6.43529L153.188 12.9679L154.938 13.9375ZM148.875 24.875V26.875H150.053L150.624 25.8446L148.875 24.875ZM142.625 24.875L140.633 25.0529L140.796 26.875H142.625V24.875ZM140.672 3V1H138.485L138.68 3.17786L140.672 3ZM146.922 3L148.91 2.78623L148.718 1H146.922V3ZM148.266 15.5L146.277 15.7138L146.987 22.3215L150.042 16.4192L148.266 15.5ZM154.734 3V1H153.517L152.958 2.08079L154.734 3ZM160.984 3L162.984 3.03499L163.02 1H160.984V3ZM160.766 15.5L158.766 15.465L158.643 22.5041L162.448 16.5811L160.766 15.5ZM168.797 3V1H167.705L167.114 1.91891L168.797 3ZM175.047 3L176.743 4.06L178.655 1H175.047V3ZM161.375 24.875V26.875H162.483L163.071 25.935L161.375 24.875ZM155.125 24.875L153.125 24.9093L153.159 26.875H155.125V24.875ZM171.219 13.9375L173.15 14.457L173.152 14.4508L171.219 13.9375ZM193.094 13.9375L195.025 14.457L195.027 14.4508L193.094 13.9375ZM184.562 17.25L183.327 15.6773L183.32 15.6828L184.562 17.25ZM186.844 13.9375L188.773 14.4664L188.775 14.4591L188.776 14.4519L186.844 13.9375ZM186.344 10.625L184.726 11.8013L184.731 11.8073L184.735 11.8133L186.344 10.625ZM179.719 10.625L178.483 9.05235L178.476 9.05777L179.719 10.625ZM177.469 13.9375L179.398 14.4664L179.4 14.4591L179.401 14.4519L177.469 13.9375ZM177.938 17.25L176.32 18.4263L176.324 18.4323L176.329 18.4383L177.938 17.25ZM202.156 9.25V7.25H200.625L200.225 8.72867L202.156 9.25ZM201.734 10.8125L199.804 10.2912L199.123 12.8125H201.734V10.8125ZM209.766 10.0312L211.692 10.5705L211.697 10.5526L211.701 10.5345L209.766 10.0312ZM200.062 17.0625L201.828 16.1232L199.444 11.6425L198.131 16.5448L200.062 17.0625ZM197.969 24.875L199.208 26.4452L199.729 26.034L199.901 25.3927L197.969 24.875ZM190.047 31.125L188.115 30.6077L186.557 36.4259L191.286 32.6952L190.047 31.125ZM197.578 3V1H196.043L195.646 2.48267L197.578 3ZM215.984 10.0938L214.053 9.57472L214.052 9.57816L215.984 10.0938ZM207.875 17.0625V15.0625H204.546L206.109 18.0018L207.875 17.0625ZM212.031 24.875V26.875H215.361L213.797 23.9357L212.031 24.875ZM204.219 24.875L202.453 25.8143L203.017 26.875H204.219V24.875ZM213.594 24.875L211.662 24.3575L210.988 26.875H213.594V24.875ZM219.453 3V1H217.918L217.521 2.48253L219.453 3ZM236.844 13.9375L238.775 14.4563L238.776 14.4537L236.844 13.9375ZM224.031 9.25V7.25H222.497L222.1 8.73167L224.031 9.25ZM221.516 18.625L219.584 18.1067L218.908 20.625H221.516V18.625ZM230.594 13.9375L232.525 14.4588L232.526 14.4528L230.594 13.9375ZM109.419 16.815L108.948 14.8712L108.948 14.8712L109.419 16.815ZM12.1094 5H18.3594V1H12.1094V5ZM16.4275 2.48227L14.3338 10.2948L18.1975 11.3302L20.2912 3.51773L16.4275 2.48227ZM16.2656 12.8125H24.0781V8.8125H16.2656V12.8125ZM26.01 11.3302L28.1037 3.51773L24.24 2.48227L22.1463 10.2948L26.01 11.3302ZM26.1719 5H32.4219V1H26.1719V5ZM30.49 2.48253L24.6306 24.3575L28.4944 25.3925L34.3538 3.51747L30.49 2.48253ZM26.5625 22.875H20.3125V26.875H26.5625V22.875ZM22.2443 25.3927L24.3381 17.5802L20.4744 16.5448L18.3807 24.3573L22.2443 25.3927ZM22.4062 15.0625H14.5938V19.0625H22.4062V15.0625ZM12.6619 16.5448L10.5682 24.3573L14.4318 25.3927L16.5256 17.5802L12.6619 16.5448ZM11.44 23.179L3.94 27.8665L6.06 31.2585L13.56 26.571L11.44 23.179ZM6.932 30.0796L14.0414 3.51709L10.1774 2.48291L3.068 29.0454L6.932 30.0796ZM39.0625 22.875C36.5759 22.875 34.9301 22.0333 33.8016 20.4909L30.5734 22.8529C32.5699 25.5813 35.5074 26.875 39.0625 26.875V22.875ZM33.8016 20.4909C32.6641 18.9364 32.3068 17.0112 32.9939 14.457L29.1311 13.418C28.1932 16.9054 28.5859 20.1365 30.5734 22.8529L33.8016 20.4909ZM32.9955 14.4508C33.675 11.8917 35.1609 9.67035 37.5664 7.77366L35.0898 4.63259C32.0787 7.00674 30.0542 9.94165 29.1295 13.4242L32.9955 14.4508ZM37.5664 7.77366C39.9745 5.87501 42.4129 5 44.9219 5V1C41.3891 1 38.0984 2.26041 35.0898 4.63259L37.5664 7.77366ZM44.9219 5C47.4085 5 49.0542 5.84175 50.1828 7.38414L53.4109 5.02211C51.4145 2.29367 48.4769 1 44.9219 1V5ZM50.1828 7.38414C51.3222 8.94133 51.6828 10.8694 51.0045 13.4242L54.8705 14.4508C55.7963 10.9639 55.3965 7.73575 53.4109 5.02211L50.1828 7.38414ZM51.0061 13.418C50.317 15.9802 48.8247 18.2037 46.4179 20.1013L48.8946 23.2424C51.9045 20.8692 53.933 17.9364 54.8689 14.457L51.0061 13.418ZM46.4179 20.1013C44.0099 22 41.5714 22.875 39.0625 22.875V26.875C42.5952 26.875 45.8859 25.6146 48.8946 23.2424L46.4179 20.1013ZM40.7344 20.625C42.5403 20.625 44.1919 19.9722 45.6487 18.8172L43.1638 15.6828C42.3081 16.3611 41.5118 16.625 40.7344 16.625V20.625ZM45.6419 18.8226C47.1073 17.6713 48.1366 16.2157 48.6163 14.4664L44.7587 13.4086C44.53 14.2426 44.0386 14.9954 43.1706 15.6774L45.6419 18.8226ZM48.6202 14.4519C49.09 12.6865 48.8989 10.9296 47.7962 9.43673L44.5788 11.8133C44.8303 12.1537 44.9725 12.6051 44.7548 13.4231L48.6202 14.4519ZM47.805 9.44866C46.7054 7.93677 45.0789 7.25 43.25 7.25V11.25C44.0044 11.25 44.3363 11.4799 44.57 11.8013L47.805 9.44866ZM43.25 7.25C41.445 7.25 39.791 7.90198 38.3269 9.05236L40.7981 12.1976C41.6674 11.5147 42.4716 11.25 43.25 11.25V7.25ZM38.32 9.05777C36.8633 10.2127 35.8458 11.672 35.3798 13.4231L39.2452 14.4519C39.4667 13.6197 39.9492 12.8707 40.805 12.1922L38.32 9.05777ZM35.3837 13.4086C34.9014 15.1676 35.0729 16.9264 36.1638 18.4263L39.3987 16.0737C39.1563 15.7403 39.0153 15.2908 39.2413 14.4664L35.3837 13.4086ZM36.1725 18.4383C37.2809 19.9388 38.9052 20.625 40.7344 20.625V16.625C39.9802 16.625 39.6358 16.3945 39.39 16.0617L36.1725 18.4383ZM58.6796 24.6971L56.7265 2.82214L52.7423 3.17786L54.6954 25.0529L58.6796 24.6971ZM54.7344 5H60.9844V1H54.7344V5ZM58.9958 3.21377L60.3396 15.7138L64.3167 15.2862L62.9729 2.78623L58.9958 3.21377ZM64.0108 16.5811L72.042 4.08109L68.6767 1.91891L60.6455 14.4189L64.0108 16.5811ZM70.3594 5H76.6094V1H70.3594V5ZM74.9134 1.94L61.2415 23.815L64.6335 25.935L78.3054 4.06L74.9134 1.94ZM62.9375 22.875H56.6875V26.875H62.9375V22.875ZM93.4273 2.48317L91.7554 8.73317L95.6196 9.76683L97.2914 3.51683L93.4273 2.48317ZM93.6875 7.25H82.75V11.25H93.6875V7.25ZM80.8191 8.72867L80.3973 10.2912L84.259 11.3338L84.6809 9.77133L80.8191 8.72867ZM82.3281 12.8125H101.078V8.8125H82.3281V12.8125ZM99.1461 10.2957L97.4742 16.5457L101.338 17.5793L103.01 11.3293L99.1461 10.2957ZM99.4062 15.0625H80.6562V19.0625H99.4062V15.0625ZM78.7254 16.5412L78.3035 18.1037L82.1652 19.1463L82.5871 17.5838L78.7254 16.5412ZM80.2344 20.625H91.1719V16.625H80.2344V20.625ZM89.2398 18.1082L87.5679 24.3582L91.4321 25.3918L93.1039 19.1418L89.2398 18.1082ZM89.5 22.875H72.3125V26.875H89.5V22.875ZM74.2444 25.3925L80.1038 3.51747L76.24 2.48253L70.3806 24.3575L74.2444 25.3925ZM78.1719 5H95.3594V1H78.1719V5ZM99.5691 8.72867L99.1473 10.2912L103.009 11.3338L103.431 9.77133L99.5691 8.72867ZM101.078 12.8125H107.328V8.8125H101.078V12.8125ZM107.328 12.8125C107.977 12.8125 108.7 12.7372 109.358 12.4488C110.083 12.1307 110.768 11.5242 111.035 10.5705L107.183 9.49199C107.234 9.31111 107.331 9.13776 107.464 8.99809C107.588 8.86621 107.704 8.80628 107.751 8.78561C107.795 8.76638 107.791 8.77581 107.711 8.78856C107.633 8.80096 107.509 8.8125 107.328 8.8125V12.8125ZM111.045 10.5345C111.157 10.1034 111.195 9.53104 110.953 8.93604C110.709 8.33428 110.273 7.94423 109.868 7.71128C109.162 7.30559 108.337 7.25 107.75 7.25V11.25C107.935 11.25 108.037 11.2621 108.078 11.2692C108.129 11.2781 108.033 11.2703 107.875 11.1793C107.696 11.0766 107.413 10.8493 107.248 10.4429C107.085 10.0432 107.129 9.69869 107.174 9.52798L111.045 10.5345ZM107.75 7.25H101.5V11.25H107.75V7.25ZM97.4744 16.5448L95.3807 24.3573L99.2443 25.3927L101.338 17.5802L97.4744 16.5448ZM96.0737 23.3048L88.1518 29.5548L90.6294 32.6952L98.5513 26.4452L96.0737 23.3048ZM91.3226 31.6423L98.8538 3.51733L94.9899 2.48267L87.4587 30.6077L91.3226 31.6423ZM96.9219 5H109.422V1H96.9219V5ZM109.422 5C111.83 5 112.86 5.56341 113.268 6.05314C113.636 6.49515 113.965 7.45839 113.397 9.57472L117.26 10.6128C117.962 7.99994 117.942 5.41631 116.342 3.49373C114.781 1.61889 112.222 1 109.422 1V5ZM105.453 18.0018L109.609 25.8143L113.141 23.9357L108.984 16.1232L105.453 18.0018ZM111.375 22.875H103.562V26.875H111.375V22.875ZM105.328 23.9357L101.172 16.1232L97.6406 18.0018L101.797 25.8143L105.328 23.9357ZM122.844 15.0625C120.436 15.0625 119.406 14.4991 118.998 14.0094C118.63 13.5674 118.3 12.6041 118.869 10.4878L115.006 9.44972C114.304 12.0626 114.323 14.6462 115.924 16.5688C117.485 18.4436 120.043 19.0625 122.844 19.0625V15.0625ZM118.87 10.4843C119.397 8.51031 120.291 7.20298 121.454 6.36486C122.634 5.51497 124.295 5 126.609 5V1C123.715 1 121.16 1.64649 119.116 3.11952C117.055 4.60431 115.718 6.78135 115.005 9.45316L118.87 10.4843ZM126.609 5H139.109V1H126.609V5ZM137.177 2.48317L135.505 8.73317L139.37 9.76683L141.041 3.51683L137.177 2.48317ZM137.438 7.25H124.938V11.25H137.438V7.25ZM124.938 7.25C124.304 7.25 123.599 7.31695 122.959 7.57965C122.261 7.8663 121.516 8.4537 121.252 9.46391L125.123 10.4736C125.064 10.6997 124.944 10.9032 124.792 11.0582C124.65 11.2018 124.522 11.262 124.479 11.2797C124.437 11.2968 124.446 11.2865 124.534 11.2735C124.619 11.261 124.75 11.25 124.938 11.25V7.25ZM121.26 9.43346C121.147 9.8425 121.089 10.3929 121.289 10.9809C121.496 11.5918 121.905 12.0201 122.33 12.2897C123.059 12.7529 123.924 12.8125 124.516 12.8125V8.8125C124.337 8.8125 124.246 8.79976 124.219 8.79473C124.182 8.78767 124.3 8.80217 124.475 8.91342C124.678 9.04242 124.941 9.2949 125.076 9.69492C125.204 10.072 125.15 10.3763 125.115 10.504L121.26 9.43346ZM124.516 12.8125H129.203V8.8125H124.516V12.8125ZM129.203 12.8125C131.618 12.8125 132.663 13.3688 133.077 13.8537C133.439 14.2779 133.774 15.2022 133.224 17.2657L137.089 18.2968C137.778 15.7145 137.74 13.1544 136.118 11.2556C134.548 9.41769 131.997 8.8125 129.203 8.8125V12.8125ZM133.225 17.2622C132.681 19.2867 131.77 20.6283 130.594 21.4861C129.407 22.3531 127.744 22.875 125.438 22.875V26.875C128.339 26.875 130.901 26.2146 132.953 24.717C135.017 23.2102 136.361 21.005 137.088 18.3003L133.225 17.2622ZM125.438 22.875H116.062V26.875H125.438V22.875ZM117.995 25.3918L119.666 19.1418L115.802 18.1082L114.13 24.3582L117.995 25.3918ZM117.734 20.625H127.109V16.625H117.734V20.625ZM127.109 20.625C127.773 20.625 128.515 20.5412 129.19 20.2244C129.938 19.8729 130.577 19.2381 130.833 18.3165L126.979 17.246C127.02 17.0999 127.099 16.9474 127.216 16.8165C127.328 16.6909 127.437 16.6286 127.49 16.6037C127.538 16.5809 127.541 16.5888 127.47 16.601C127.4 16.613 127.283 16.625 127.109 16.625V20.625ZM130.841 18.2861C130.96 17.8325 130.987 17.2331 130.705 16.6253C130.428 16.0286 129.968 15.6712 129.583 15.4697C128.901 15.1133 128.111 15.0625 127.531 15.0625V19.0625C127.722 19.0625 127.835 19.0739 127.888 19.0824C127.952 19.0927 127.874 19.0898 127.73 19.0146C127.574 18.933 127.27 18.7253 127.076 18.3082C126.878 17.8802 126.915 17.4904 126.971 17.2764L130.841 18.2861ZM127.531 15.0625H122.844V19.0625H127.531V15.0625ZM153.188 12.9679L147.126 23.9054L150.624 25.8446L156.687 14.9071L153.188 12.9679ZM148.875 22.875H142.625V26.875H148.875V22.875ZM144.617 24.6971L142.664 2.82214L138.68 3.17786L140.633 25.0529L144.617 24.6971ZM140.672 5H146.922V1H140.672V5ZM144.933 3.21377L146.277 15.7138L150.254 15.2862L148.91 2.78623L144.933 3.21377ZM150.042 16.4192L156.511 3.91921L152.958 2.08079L146.489 14.5808L150.042 16.4192ZM154.734 5H160.984V1H154.734V5ZM158.985 2.96501L158.766 15.465L162.765 15.535L162.984 3.03499L158.985 2.96501ZM162.448 16.5811L170.48 4.08109L167.114 1.91891L159.083 14.4189L162.448 16.5811ZM168.797 5H175.047V1H168.797V5ZM173.351 1.94L159.679 23.815L163.071 25.935L176.743 4.06L173.351 1.94ZM161.375 22.875H155.125V26.875H161.375V22.875ZM157.125 24.8407L156.937 13.9032L152.938 13.9718L153.125 24.9093L157.125 24.8407ZM179.219 22.875C176.732 22.875 175.086 22.0333 173.958 20.4909L170.73 22.8529C172.726 25.5813 175.664 26.875 179.219 26.875V22.875ZM173.958 20.4909C172.82 18.9364 172.463 17.0112 173.15 14.457L169.287 13.418C168.349 16.9054 168.742 20.1365 170.73 22.8529L173.958 20.4909ZM173.152 14.4508C173.831 11.8917 175.317 9.67035 177.723 7.77366L175.246 4.63259C172.235 7.00674 170.21 9.94165 169.286 13.4242L173.152 14.4508ZM177.723 7.77366C180.131 5.87501 182.569 5 185.078 5V1C181.545 1 178.255 2.26041 175.246 4.63259L177.723 7.77366ZM185.078 5C187.565 5 189.21 5.84175 190.339 7.38414L193.567 5.02211C191.571 2.29367 188.633 1 185.078 1V5ZM190.339 7.38414C191.478 8.94133 191.839 10.8694 191.161 13.4242L195.027 14.4508C195.953 10.9639 195.553 7.73575 193.567 5.02211L190.339 7.38414ZM191.162 13.418C190.473 15.9802 188.981 18.2037 186.574 20.1013L189.051 23.2424C192.061 20.8692 194.089 17.9364 195.025 14.457L191.162 13.418ZM186.574 20.1013C184.166 22 181.728 22.875 179.219 22.875V26.875C182.751 26.875 186.042 25.6146 189.051 23.2424L186.574 20.1013ZM180.891 20.625C182.697 20.625 184.348 19.9722 185.805 18.8172L183.32 15.6828C182.464 16.3611 181.668 16.625 180.891 16.625V20.625ZM185.798 18.8226C187.264 17.6713 188.293 16.2157 188.773 14.4664L184.915 13.4086C184.686 14.2426 184.195 14.9954 183.327 15.6774L185.798 18.8226ZM188.776 14.4519C189.246 12.6865 189.055 10.9296 187.952 9.43673L184.735 11.8133C184.987 12.1537 185.129 12.6051 184.911 13.4231L188.776 14.4519ZM187.961 9.44866C186.862 7.93677 185.235 7.25 183.406 7.25V11.25C184.161 11.25 184.493 11.4799 184.726 11.8013L187.961 9.44866ZM183.406 7.25C181.601 7.25 179.947 7.90198 178.483 9.05236L180.954 12.1976C181.824 11.5147 182.628 11.25 183.406 11.25V7.25ZM178.476 9.05777C177.02 10.2127 176.002 11.672 175.536 13.4231L179.401 14.4519C179.623 13.6197 180.105 12.8707 180.961 12.1922L178.476 9.05777ZM175.54 13.4086C175.058 15.1676 175.229 16.9264 176.32 18.4263L179.555 16.0737C179.313 15.7403 179.172 15.2908 179.398 14.4664L175.54 13.4086ZM176.329 18.4383C177.437 19.9388 179.061 20.625 180.891 20.625V16.625C180.136 16.625 179.792 16.3945 179.546 16.0617L176.329 18.4383ZM200.225 8.72867L199.804 10.2912L203.665 11.3338L204.087 9.77133L200.225 8.72867ZM201.734 12.8125H207.984V8.8125H201.734V12.8125ZM207.984 12.8125C208.634 12.8125 209.357 12.7372 210.014 12.4488C210.739 12.1307 211.425 11.5242 211.692 10.5705L207.84 9.49199C207.89 9.31111 207.988 9.13776 208.12 8.99809C208.245 8.86621 208.36 8.80628 208.408 8.78561C208.451 8.76638 208.447 8.77581 208.367 8.78856C208.289 8.80096 208.165 8.8125 207.984 8.8125V12.8125ZM211.701 10.5345C211.813 10.1034 211.851 9.53104 211.609 8.93604C211.365 8.33428 210.929 7.94423 210.524 7.71128C209.818 7.30559 208.993 7.25 208.406 7.25V11.25C208.591 11.25 208.693 11.2621 208.734 11.2692C208.785 11.2781 208.689 11.2703 208.531 11.1793C208.352 11.0766 208.069 10.8493 207.904 10.4429C207.742 10.0432 207.786 9.69869 207.83 9.52798L211.701 10.5345ZM208.406 7.25H202.156V11.25H208.406V7.25ZM198.131 16.5448L196.037 24.3573L199.901 25.3927L201.994 17.5802L198.131 16.5448ZM196.73 23.3048L188.808 29.5548L191.286 32.6952L199.208 26.4452L196.73 23.3048ZM191.979 31.6423L199.51 3.51733L195.646 2.48267L188.115 30.6077L191.979 31.6423ZM197.578 5H210.078V1H197.578V5ZM210.078 5C212.486 5 213.516 5.56341 213.924 6.05314C214.292 6.49515 214.622 7.45839 214.053 9.57472L217.916 10.6128C218.618 7.99994 218.599 5.41631 216.998 3.49373C215.437 1.61889 212.878 1 210.078 1V5ZM214.052 9.57816C213.501 11.6447 212.68 12.9821 211.724 13.8035C210.795 14.6017 209.565 15.0625 207.875 15.0625V19.0625C210.351 19.0625 212.557 18.3618 214.331 16.8372C216.078 15.3356 217.229 13.1887 217.917 10.6093L214.052 9.57816ZM206.109 18.0018L210.266 25.8143L213.797 23.9357L209.641 16.1232L206.109 18.0018ZM212.031 22.875H204.219V26.875H212.031V22.875ZM205.984 23.9357L201.828 16.1232L198.297 18.0018L202.453 25.8143L205.984 23.9357ZM215.526 25.3925L221.385 3.51747L217.521 2.48253L211.662 24.3575L215.526 25.3925ZM219.453 5H230.391V1H219.453V5ZM230.391 5C233.175 5 234.407 5.79851 234.969 6.75067C235.624 7.86069 235.847 9.92059 234.912 13.4213L238.776 14.4537C239.789 10.6627 239.91 7.25389 238.414 4.71808C236.825 2.02441 233.856 1 230.391 1V5ZM234.912 13.4187C233.998 16.8243 232.638 19.1625 230.969 20.6454C229.333 22.098 227.239 22.875 224.531 22.875V26.875C228.073 26.875 231.156 25.8291 233.625 23.6359C236.06 21.4729 237.732 18.3424 238.775 14.4563L234.912 13.4187ZM224.531 22.875H213.594V26.875H224.531V22.875ZM222.1 8.73167L219.584 18.1067L223.447 19.1433L225.963 9.76833L222.1 8.73167ZM221.516 20.625H226.203V16.625H221.516V20.625ZM226.203 20.625C227.815 20.625 229.225 19.9927 230.323 18.8204C231.364 17.7085 232.057 16.1892 232.525 14.4588L228.663 13.4162C228.286 14.8108 227.826 15.6352 227.404 16.0859C227.038 16.4761 226.675 16.625 226.203 16.625V20.625ZM232.526 14.4528C232.967 12.8011 233.171 11.0896 232.607 9.67909C232.298 8.90576 231.765 8.24786 231.007 7.8106C230.28 7.39107 229.478 7.25 228.719 7.25V11.25C229.002 11.25 229.058 11.3042 229.008 11.2753C228.928 11.2287 228.89 11.1567 228.893 11.1647C228.911 11.2088 228.965 11.3914 228.947 11.7979C228.93 12.1971 228.845 12.732 228.661 13.4222L232.526 14.4528ZM228.719 7.25H224.031V11.25H228.719V7.25ZM113.396 9.57816C112.514 12.8818 110.956 14.3848 108.948 14.8712L109.889 18.7588C113.749 17.8241 116.13 14.8462 117.261 10.6093L113.396 9.57816ZM108.948 14.8712C108.438 14.9947 107.864 15.0625 107.219 15.0625V19.0625C108.144 19.0625 109.037 18.9653 109.889 18.7588L108.948 14.8712Z" fill="black" mask="url(#path-3-outside-2_89_11)"/>
<defs>
<linearGradient id="paint0_linear_89_11" x1="121.25" y1="-10.125" x2="134.75" y2="40.375" gradientUnits="userSpaceOnUse">
<stop stop-color="#89FFFB"/>
<stop offset="1" stop-color="#CBFF70"/>
</linearGradient>
</defs>
</svg>
