<svg width="239" height="24" viewBox="0 0 239 24" fill="none" xmlns="http://www.w3.org/2000/svg">
<g clip-path="url(#clip0_93_37)">
<path d="M3.92042 2.6981C4.17138 2.6981 4.44316 2.86279 4.73588 3.19204C5.0287 3.5213 5.44689 4.04603 5.99056 4.76623C6.49238 5.44523 7.05698 6.28377 7.68427 7.28183C8.31156 8.27979 8.71929 8.91256 8.90745 9.18013C8.94932 9.22133 9.0591 9.38075 9.2368 9.65851C9.41461 9.93638 9.54521 10.137 9.62893 10.2605C9.90072 10.6514 10.0681 10.8469 10.1307 10.8469C10.2144 10.8469 10.2562 10.3737 10.2562 9.4271V6.77256C10.2562 6.50499 10.251 6.16039 10.2405 5.73855C10.2301 5.3167 10.2248 5.08518 10.2248 5.04399C10.2248 4.79702 10.2667 4.44727 10.3503 3.99453C10.4339 3.56239 10.5699 3.25373 10.758 3.06856C10.9044 2.92447 11.0978 2.84219 11.3383 2.82159C11.5788 2.80099 12.2218 2.80099 13.2673 2.82159C13.7064 2.82159 14.0305 2.82674 14.2396 2.83704C14.4487 2.84733 14.616 2.86278 14.7414 2.88338C14.8669 2.90387 14.9348 2.91932 14.9453 2.92962C14.9558 2.93992 14.9767 2.97597 15.0081 3.03766C15.0394 3.09946 15.076 3.15084 15.1179 3.19204C15.2642 3.35662 15.353 3.88135 15.3844 4.76623C15.4158 5.651 15.4211 8.11007 15.4001 12.1433C15.3792 16.3618 15.353 18.8671 15.3218 19.6594C15.2904 20.4516 15.2015 20.9197 15.0551 21.0637C15.0342 21.1049 15.0029 21.1461 14.961 21.1872C14.8983 21.2901 14.7833 21.3467 14.616 21.357C14.4487 21.3673 13.8737 21.3724 12.8909 21.3724C11.6781 21.3724 10.9514 21.3519 10.711 21.3107C10.4706 21.2695 10.2562 21.1564 10.0681 20.9711C9.83803 20.7037 9.64986 20.4464 9.50345 20.1995C9.46159 20.1377 8.82384 19.1809 7.59019 17.3289C6.48191 15.6826 5.88602 14.839 5.80229 14.7979C5.76054 14.7773 5.72391 14.7876 5.69251 14.8287C5.66122 14.8699 5.64552 14.9315 5.64552 15.0139C5.64552 15.1374 5.62459 15.4255 5.58273 15.8782C5.56191 16.0016 5.50958 16.7733 5.42596 18.1932C5.34234 19.469 5.30048 20.2097 5.30048 20.4156C5.30048 20.7448 5.14371 20.9917 4.82996 21.1564C4.78821 21.1769 4.74634 21.2026 4.70459 21.2335C4.66273 21.2643 4.63656 21.2798 4.6261 21.2798C4.61563 21.2798 4.58434 21.2901 4.53201 21.3107C4.47979 21.3313 4.43793 21.3416 4.40653 21.3416H4.21837C4.12428 21.3416 4.02497 21.3364 3.92042 21.3261C3.81587 21.3158 3.66946 21.3107 3.4813 21.3107C2.58212 21.2695 1.82935 21.2078 1.22299 21.1255C0.742109 21.0432 0.470216 20.8682 0.407531 20.6008C0.302983 19.8806 0.24019 19.2118 0.219258 18.5945C0.0729558 14.4789 -0.000305176 10.5588 -0.000305176 6.83424C-0.000305176 6.60787 0.00492905 6.23753 0.0153948 5.7231C0.0258605 5.20867 0.0310914 4.87941 0.0310914 4.73533C0.0310914 4.2621 0.0624893 3.87105 0.125175 3.56239C0.167038 3.31553 0.287284 3.11995 0.485914 2.97597C0.684545 2.83189 0.945973 2.7393 1.27008 2.6981C1.59419 2.65701 1.88691 2.63641 2.14822 2.63641C2.40965 2.63641 2.73899 2.64672 3.13625 2.66731C3.53362 2.68781 3.79494 2.6981 3.92042 2.6981Z" fill="white"/>
<path d="M30.7378 3.28464C30.9887 3.38752 31.3337 3.57269 31.7728 3.84026C31.9819 3.96364 32.3583 4.2518 32.902 4.70444C33.3619 5.07489 33.9161 5.71281 34.5643 6.61818C34.7734 6.90635 34.9512 7.29729 35.0975 7.79112C35.2439 8.32615 35.3799 8.86118 35.5052 9.3962C35.6307 9.97232 35.6935 10.7337 35.6935 11.6803C35.6935 12.6475 35.6307 13.3369 35.5052 13.7484C35.4425 13.9953 35.2335 14.4789 34.8779 15.1991C34.6479 15.6519 34.3971 16.1148 34.1252 16.5881C34.0416 16.7116 33.4665 17.4729 32.4001 18.8722C32.2538 19.0574 32.0551 19.2375 31.8042 19.4124C31.5532 19.5873 31.3441 19.7211 31.1769 19.8136C31.0095 19.9062 30.7273 20.0349 30.33 20.1995C29.9327 20.3641 29.6713 20.4773 29.5459 20.539C29.0231 20.786 28.6154 20.93 28.3226 20.9711C28.3018 20.9711 27.9672 21.002 27.319 21.0637C25.4162 21.2284 24.0152 21.0843 23.116 20.6316C22.0286 20.0967 20.9308 19.2838 19.8227 18.1932C19.5298 17.905 19.3417 17.7096 19.2581 17.6067C19.1116 17.4215 18.9966 17.2157 18.913 16.9894C18.8085 16.7013 18.6621 16.4132 18.4739 16.1251C18.2439 15.7958 18.0348 15.2917 17.8466 14.6127C17.6375 13.8924 17.5539 13.0384 17.5956 12.0508C17.6375 11.1042 17.7002 10.2913 17.7839 9.61228C17.9511 8.29526 18.2439 7.40018 18.662 6.92684C20.0213 5.32186 21.1818 4.2826 22.1437 3.80936L23.5237 3.13025C24.6737 2.65702 25.8866 2.4564 27.1621 2.52839C28.4376 2.60037 29.6295 2.85249 30.7378 3.28464ZM23.8061 8.84058C23.3878 9.25212 23.1055 9.60198 22.9591 9.89004C22.8128 10.1782 22.7395 10.7234 22.7395 11.526C22.7395 12.4108 22.8442 13.1311 23.0533 13.6866C23.2624 14.2834 23.4923 14.7053 23.7433 14.9521C24.0152 15.2197 24.1719 15.3843 24.2138 15.4461C24.3183 15.5901 24.5274 15.7341 24.8411 15.8782C25.6148 16.2074 26.4459 16.2074 27.3347 15.8782C28.2233 15.549 28.9813 15.0859 29.6086 14.4892C30.1732 13.9542 30.4973 13.4501 30.5809 12.9767C30.6437 12.5858 30.7273 12.3182 30.8318 12.1742C30.8945 12.0713 30.8737 11.7627 30.7692 11.2482C30.6646 10.7749 30.5391 10.3942 30.3927 10.1061C30.3091 9.94153 30.0686 9.64317 29.6713 9.21103C29.3368 8.84058 29.1067 8.65541 28.9813 8.65541C28.8767 8.65541 28.7722 8.60391 28.6676 8.50102C28.5213 8.35705 28.3018 8.25416 28.0089 8.19236C27.5071 8.08948 27.2039 8.02779 27.0994 8.0072C27.0158 7.9866 26.8694 7.966 26.6603 7.94551C26.4512 7.92491 26.3048 7.91461 26.2211 7.91461C25.9494 7.87341 25.5729 7.91461 25.092 8.03809C24.6737 8.14098 24.2451 8.40843 23.8061 8.84058Z" fill="white"/>
<path d="M41.3706 2.6981C41.6215 2.6981 41.8934 2.86279 42.1861 3.19204C42.4788 3.5213 42.8971 4.04603 43.4408 4.76623C43.9426 5.44523 44.5072 6.28377 45.1345 7.28183C45.7618 8.27979 46.1695 8.91256 46.3576 9.18013C46.3995 9.22133 46.5093 9.38075 46.687 9.65851C46.8648 9.93638 46.9954 10.137 47.0791 10.2605C47.3509 10.6514 47.5181 10.8469 47.5809 10.8469C47.6646 10.8469 47.7064 10.3737 47.7064 9.4271V6.77256C47.7064 6.50499 47.7012 6.16039 47.6907 5.73855C47.6803 5.3167 47.675 5.08518 47.675 5.04399C47.675 4.79702 47.7169 4.44727 47.8005 3.99453C47.8841 3.56239 48.0201 3.25373 48.2082 3.06856C48.3546 2.92447 48.548 2.84219 48.7885 2.82159C49.0289 2.80099 49.6719 2.80099 50.7175 2.82159C51.1566 2.82159 51.4807 2.82674 51.6898 2.83704C51.8989 2.84733 52.0662 2.86278 52.1916 2.88338C52.3171 2.90387 52.385 2.91932 52.3955 2.92962C52.406 2.93992 52.4269 2.97597 52.4582 3.03766C52.4896 3.09946 52.5262 3.15084 52.568 3.19204C52.7144 3.35662 52.8032 3.88135 52.8346 4.76623C52.866 5.651 52.8713 8.11007 52.8503 12.1433C52.8294 16.3618 52.8032 18.8671 52.7719 19.6594C52.7405 20.4516 52.6517 20.9197 52.5053 21.0637C52.4844 21.1049 52.4531 21.1461 52.4112 21.1872C52.3484 21.2901 52.2335 21.3467 52.0662 21.357C51.8989 21.3673 51.3239 21.3724 50.3411 21.3724C49.1282 21.3724 48.4016 21.3519 48.1612 21.3107C47.9207 21.2695 47.7064 21.1564 47.5181 20.9711C47.2882 20.7037 47.0999 20.4464 46.9536 20.1995C46.9118 20.1377 46.274 19.1809 45.0404 17.3289C43.9321 15.6826 43.3361 14.839 43.2525 14.7979C43.2107 14.7773 43.1741 14.7876 43.1427 14.8287C43.1114 14.8699 43.0957 14.9315 43.0957 15.0139C43.0957 15.1374 43.0748 15.4255 43.0329 15.8782C43.0121 16.0016 42.9598 16.7733 42.8762 18.1932C42.7925 19.469 42.7507 20.2097 42.7507 20.4156C42.7507 20.7448 42.5938 20.9917 42.2802 21.1564C42.2384 21.1769 42.1965 21.2026 42.1547 21.2335C42.1129 21.2643 42.0868 21.2798 42.0763 21.2798C42.0658 21.2798 42.0345 21.2901 41.9822 21.3107C41.93 21.3313 41.8881 21.3416 41.8567 21.3416H41.6686C41.5745 21.3416 41.4752 21.3364 41.3706 21.3261C41.2661 21.3158 41.1197 21.3107 40.9315 21.3107C40.0323 21.2695 39.2795 21.2078 38.6732 21.1255C38.1922 21.0432 37.9204 20.8682 37.8577 20.6008C37.7532 19.8806 37.6904 19.2118 37.6695 18.5945C37.5231 14.4789 37.4499 10.5588 37.4499 6.83424C37.4499 6.60787 37.4551 6.23753 37.4656 5.7231C37.4761 5.20867 37.4813 4.87941 37.4813 4.73533C37.4813 4.2621 37.5127 3.87105 37.5754 3.56239C37.6172 3.31553 37.7375 3.11995 37.9361 2.97597C38.1347 2.83189 38.3962 2.7393 38.7203 2.6981C39.0443 2.65701 39.3371 2.63641 39.5984 2.63641C39.8598 2.63641 40.1892 2.64672 40.5864 2.66731C40.9837 2.68781 41.2451 2.6981 41.3706 2.6981Z" fill="white"/>
<path d="M65.1875 7.70798C65.8532 7.70798 66.2794 7.78661 66.4658 7.94389C66.6259 8.15353 66.7458 8.92673 66.8254 10.2634C66.8788 11.3379 66.8123 11.9932 66.6259 12.2291C66.4929 12.3602 66.2993 12.4453 66.0463 12.4846C65.7934 12.524 65.2407 12.5698 64.3885 12.6222C63.1899 12.7009 61.2857 12.7532 58.6757 12.7795C57.3973 12.8057 56.6383 12.8057 56.3986 12.7795C56.1588 12.7532 55.9458 12.6353 55.7594 12.4257C55.6262 12.2423 55.5464 12.0456 55.5196 11.836C55.493 11.6263 55.493 11.1676 55.5196 10.4599C55.6262 9.12328 55.7594 8.37625 55.9192 8.21908C56.1056 8.03562 57.091 7.91761 58.8754 7.86526C61.8317 7.76033 63.9357 7.70798 65.1875 7.70798Z" fill="white"/>
<path d="M79.6622 2.57474C79.8094 2.38946 79.9032 2.29688 79.9446 2.29688L80.2586 2.42036C80.7393 2.60553 81.074 2.72902 81.2626 2.79071C81.3466 2.8113 81.5395 2.8731 81.8426 2.97598C82.1457 3.07887 82.3495 3.14056 82.4542 3.16116C82.8303 3.24345 83.1759 3.36693 83.4888 3.5315C83.8234 3.69619 84.1788 3.86076 84.5561 4.02544C84.8482 4.14893 85.0466 4.3341 85.1513 4.58107C85.2145 4.72504 85.2036 5.0337 85.1208 5.50704C85.0368 5.95968 84.9638 6.25814 84.9006 6.40212C84.7959 6.5874 84.7338 6.80336 84.712 7.05033C84.6912 7.21501 84.5866 7.57506 84.3991 8.13069C84.2105 8.66572 83.9804 9.4476 83.709 10.4766C83.6043 10.8263 83.4528 11.3357 83.2544 12.0044C83.0549 12.6732 82.9459 13.059 82.9251 13.1619C82.8826 13.3266 82.7998 13.6352 82.6733 14.0879C82.5479 14.5406 82.4651 14.839 82.4226 14.9831C82.2972 15.4152 82.1097 16.1457 81.8579 17.1746C81.6278 18.1623 81.4403 18.8722 81.2942 19.3044C81.1056 19.9011 80.9596 20.3024 80.8549 20.5082C80.7077 20.8169 80.5823 20.9917 80.4788 21.0329C80.3948 21.074 79.6939 21.1152 78.3769 21.1564C77.0807 21.1769 76.2652 21.1255 75.9305 21.002C75.658 20.8992 75.3658 20.5596 75.0519 19.9835C74.9472 19.7982 74.6332 19.2838 74.111 18.4401C72.2708 15.4975 70.7238 12.7916 69.469 10.3222C69.469 10.3016 69.4058 10.1679 69.2804 9.92094C69.1551 9.67397 69.0504 9.4682 68.9676 9.30363C68.6536 8.7068 68.3919 8.22327 68.1826 7.85292C67.9526 7.46187 67.8174 7.05033 67.7749 6.61819C67.7749 6.4947 67.7858 6.38152 67.8065 6.27863C67.8272 6.17575 67.8588 6.08831 67.9003 6.01632C67.9428 5.94433 68.0104 5.86709 68.1041 5.7848C68.199 5.70251 68.272 5.64072 68.3244 5.59963C68.3767 5.55843 68.4704 5.50704 68.6067 5.44524C68.7419 5.38356 68.8367 5.34236 68.8891 5.32187C68.9414 5.30127 69.0406 5.26522 69.1867 5.21383C69.3328 5.16234 69.4167 5.12629 69.4374 5.1058C69.4581 5.1058 69.5574 5.0646 69.7361 4.98231C69.9128 4.90002 70.1123 4.81763 70.3314 4.73534C70.5516 4.65306 70.7653 4.57077 70.9746 4.48838C71.8108 4.17972 72.3024 4.06653 72.4485 4.14893C72.5946 4.25181 72.72 4.39579 72.8246 4.58107C72.8464 4.60156 72.8933 4.67881 72.9663 4.81248C73.0394 4.94627 73.1233 5.09035 73.2171 5.24462C73.3108 5.39901 73.4002 5.53783 73.4842 5.66132C73.567 5.7848 73.6564 5.92889 73.7502 6.09346C73.8439 6.25814 73.9279 6.39182 74.0009 6.4947C74.074 6.59759 74.1219 6.66968 74.1426 6.71077C74.2473 6.85485 74.3934 7.07093 74.582 7.35898C74.8327 7.75004 75.0519 8.07919 75.2405 8.34676C75.4705 8.65541 75.815 9.27273 76.275 10.1987C76.6304 10.8984 76.903 11.3716 77.0905 11.6186C77.2159 11.7832 77.3314 11.8244 77.4361 11.7421C77.5615 11.6597 77.6716 11.4488 77.7653 11.1093C77.8591 10.7698 77.9692 10.2399 78.0945 9.5197C78.2199 8.7995 78.293 8.36735 78.3137 8.22327C78.523 7.13262 78.6898 6.20664 78.8162 5.44524C78.837 5.26007 78.9623 4.70445 79.1924 3.77847C79.3385 3.18176 79.4954 2.78051 79.6622 2.57474Z" fill="white"/>
<path d="M88.1319 2.72902C88.7587 2.50265 89.3648 2.36886 89.9503 2.32777C90.515 2.30717 91.0797 2.41006 91.6444 2.63643C92.1666 2.8834 92.4599 3.07887 92.522 3.22285C92.6267 3.44922 92.7106 4.15923 92.7738 5.35266C92.836 6.36103 92.8883 7.87342 92.9308 9.89005C92.9308 11.6803 92.9723 12.6166 93.0562 12.699C93.1391 12.7813 93.1816 13.9439 93.1816 16.1869C93.1816 18.471 93.1074 19.7674 92.9614 20.0761C92.8153 20.4053 92.5329 20.6419 92.1143 20.786C91.676 20.9095 91.0274 20.9917 90.1705 21.0329C89.8772 21.0534 89.5633 21.0946 89.2297 21.1564C88.895 21.2181 88.6486 21.2387 88.4916 21.2181C88.3357 21.1975 88.1733 21.1255 88.0065 21.002C87.7765 20.7963 87.5453 20.4258 87.3164 19.8909C87.1485 19.4792 87.0439 18.8619 87.0024 18.0388C86.9599 17.2158 86.9294 15.055 86.9087 11.5568C86.8662 6.61819 86.9087 3.96365 87.034 3.5933C87.1594 3.26404 87.5246 2.97598 88.1319 2.72902Z" fill="white"/>
<path d="M108.267 3.28464C108.519 3.38752 108.864 3.57269 109.303 3.84026C109.512 3.96364 109.889 4.2518 110.433 4.70444C110.893 5.07489 111.446 5.71281 112.094 6.61818C112.303 6.90635 112.481 7.29729 112.628 7.79112C112.774 8.32615 112.909 8.86118 113.035 9.3962C113.161 9.97232 113.223 10.7337 113.223 11.6803C113.223 12.6475 113.161 13.3369 113.035 13.7484C112.973 13.9953 112.763 14.4789 112.408 15.1991C112.178 15.6519 111.927 16.1148 111.656 16.5881C111.572 16.7116 110.996 17.4729 109.93 18.8722C109.784 19.0574 109.586 19.2375 109.335 19.4124C109.083 19.5873 108.875 19.7211 108.707 19.8136C108.54 19.9062 108.258 20.0349 107.86 20.1995C107.463 20.3641 107.201 20.4773 107.076 20.539C106.554 20.786 106.146 20.93 105.853 20.9711C105.832 20.9711 105.497 21.002 104.849 21.0637C102.946 21.2284 101.545 21.0843 100.646 20.6316C99.5591 20.0967 98.4613 19.2838 97.3526 18.1932C97.0604 17.905 96.8718 17.7096 96.7879 17.6067C96.6418 17.4215 96.5273 17.2157 96.4434 16.9894C96.3387 16.7013 96.1927 16.4132 96.0041 16.1251C95.774 15.7958 95.5647 15.2917 95.3772 14.6127C95.1679 13.8924 95.084 13.0384 95.1254 12.0508C95.1679 11.1042 95.23 10.2913 95.314 9.61228C95.4808 8.29526 95.774 7.40018 96.1927 6.92684C97.551 5.32186 98.7121 4.2826 99.6736 3.80936L101.054 3.13025C102.204 2.65702 103.417 2.4564 104.692 2.52839C105.967 2.60037 107.16 2.85249 108.267 3.28464ZM101.336 8.84058C100.918 9.25212 100.636 9.60198 100.489 9.89004C100.343 10.1782 100.27 10.7234 100.27 11.526C100.27 12.4108 100.375 13.1311 100.584 13.6866C100.792 14.2834 101.022 14.7053 101.274 14.9521C101.545 15.2197 101.702 15.3843 101.744 15.4461C101.849 15.5901 102.058 15.7341 102.371 15.8782C103.145 16.2074 103.977 16.2074 104.865 15.8782C105.754 15.549 106.511 15.0859 107.139 14.4892C107.704 13.9542 108.028 13.4501 108.112 12.9767C108.174 12.5858 108.258 12.3182 108.362 12.1742C108.424 12.0713 108.404 11.7627 108.299 11.2482C108.194 10.7749 108.069 10.3942 107.923 10.1061C107.839 9.94153 107.599 9.64317 107.201 9.21103C106.867 8.84058 106.637 8.65541 106.511 8.65541C106.407 8.65541 106.302 8.60391 106.198 8.50102C106.051 8.35705 105.832 8.25416 105.539 8.19236C105.037 8.08948 104.734 8.02779 104.63 8.0072C104.546 7.9866 104.4 7.966 104.19 7.94551C103.981 7.92491 103.835 7.91461 103.751 7.91461C103.479 7.87341 103.103 7.91461 102.623 8.03809C102.204 8.14098 101.775 8.40843 101.336 8.84058Z" fill="#2E7BEC"/>
<path d="M119.936 2.57474C120.166 2.63643 120.385 2.8319 120.594 3.16116C120.762 3.49041 120.887 4.67365 120.971 6.71077C121.034 8.58342 121.097 9.79745 121.159 10.3531C121.222 10.9704 121.284 11.8656 121.347 13.0384C121.431 14.4789 121.483 15.23 121.504 15.2917C121.546 15.3946 122.09 15.4049 123.135 15.3226C125.101 15.1785 126.104 15.1065 126.146 15.1065C126.899 15.1065 127.317 15.1991 127.401 15.3843C127.589 15.693 127.714 15.976 127.777 16.2331C127.839 16.4904 127.882 16.8402 127.903 17.2826C127.923 17.725 127.965 18.1417 128.028 18.5327C128.174 19.4176 128.153 19.9114 127.965 20.0143C127.422 20.4258 126.303 20.6625 124.609 20.7243C124.191 20.7448 123.145 20.8066 121.473 20.9094C120.218 20.9917 119.361 21.0637 118.901 21.1255C118.316 21.2078 117.792 21.249 117.332 21.249C116.831 21.2284 116.475 21.0843 116.266 20.8169C116.057 20.5493 115.921 20.1069 115.858 19.4895C115.858 19.3456 115.774 18.3887 115.608 16.619C115.524 15.6519 115.451 14.7567 115.387 13.9336C115.367 13.5427 115.288 12.5806 115.153 11.0475C115.017 9.51455 114.927 8.39814 114.886 7.69854C114.824 6.60789 114.77 5.84659 114.729 5.41445C114.688 4.75594 114.682 4.3341 114.714 4.14893C114.744 3.96364 114.845 3.78877 115.011 3.62419C115.221 3.41842 115.555 3.27434 116.015 3.19205C116.788 3.04797 117.426 2.91419 117.929 2.7907C118.138 2.72901 118.342 2.67248 118.54 2.62098C118.739 2.56959 118.875 2.53354 118.948 2.51294C119.021 2.49234 119.109 2.47689 119.214 2.4667C119.319 2.4564 119.418 2.46155 119.513 2.48204C119.606 2.50264 119.748 2.53354 119.936 2.57474Z" fill="white"/>
<path d="M135.305 2.75992C138.232 2.71872 140.093 2.70842 140.888 2.72902C142.122 2.74962 142.816 2.83706 142.973 2.99144C143.13 3.14571 143.23 3.97395 143.272 5.47615C143.293 6.93715 143.261 7.70884 143.177 7.79113C143.093 7.87342 141.913 7.91462 139.633 7.91462C137.396 7.91462 136.173 7.966 135.963 8.06889C135.859 8.13069 135.791 8.29011 135.76 8.54738C135.728 8.80465 135.713 9.4476 135.713 10.4766H138.191C139.863 10.4766 140.804 10.528 141.013 10.6308C141.264 10.7543 141.442 10.8984 141.546 11.063C141.651 11.2894 141.672 11.8553 141.61 12.7607C141.546 13.4192 141.494 13.8204 141.453 13.9645C141.411 14.1085 141.296 14.232 141.107 14.3348C140.856 14.4583 139.947 14.52 138.378 14.52C137.375 14.52 136.727 14.5303 136.434 14.5509C136.141 14.5715 135.974 14.6332 135.932 14.7361C135.87 14.9831 135.838 15.23 135.838 15.4769C135.838 15.8267 135.88 16.0634 135.963 16.1869C136.027 16.2898 137.344 16.3618 139.915 16.403C140.982 16.403 141.767 16.4132 142.268 16.4338C142.769 16.4544 143.099 16.4801 143.256 16.511C143.413 16.5418 143.501 16.5984 143.523 16.6807C143.627 16.8865 143.68 17.6479 143.68 18.9648C143.68 20.3847 143.617 21.1666 143.491 21.3107C143.387 21.4136 143.01 21.4753 142.362 21.4959C141.714 21.5165 140.136 21.5165 137.626 21.4959C133.255 21.4753 130.966 21.4033 130.757 21.2798C130.631 21.2181 130.558 20.7963 130.538 20.0143C130.516 19.2324 130.516 16.6292 130.538 12.205C130.538 8.27477 130.553 5.7848 130.585 4.73535C130.616 3.68589 130.673 3.11997 130.757 3.03768C130.903 2.91419 132.419 2.8216 135.305 2.75992Z" fill="white"/>
<path d="M150.8 2.6981C151.051 2.6981 151.322 2.86279 151.615 3.19204C151.907 3.5213 152.326 4.04603 152.869 4.76623C153.372 5.44523 153.936 6.28377 154.563 7.28183C155.19 8.27979 155.598 8.91256 155.786 9.18013C155.828 9.22133 155.938 9.38075 156.116 9.65851C156.293 9.93638 156.424 10.137 156.508 10.2605C156.779 10.6514 156.947 10.8469 157.009 10.8469C157.093 10.8469 157.135 10.3737 157.135 9.4271V6.77256C157.135 6.50499 157.129 6.16039 157.12 5.73855C157.109 5.3167 157.103 5.08518 157.103 5.04399C157.103 4.79702 157.146 4.44727 157.23 3.99453C157.313 3.56239 157.449 3.25373 157.637 3.06856C157.783 2.92447 157.976 2.84219 158.217 2.82159C158.457 2.80099 159.1 2.80099 160.146 2.82159C160.585 2.82159 160.909 2.82674 161.118 2.83704C161.328 2.84733 161.494 2.86278 161.62 2.88338C161.746 2.90387 161.814 2.91932 161.824 2.92962C161.835 2.93992 161.855 2.97597 161.887 3.03766C161.919 3.09946 161.955 3.15084 161.997 3.19204C162.143 3.35662 162.233 3.88135 162.263 4.76623C162.295 5.651 162.3 8.11007 162.279 12.1433C162.258 16.3618 162.233 18.8671 162.201 19.6594C162.169 20.4516 162.08 20.9197 161.934 21.0637C161.913 21.1049 161.881 21.1461 161.84 21.1872C161.777 21.2901 161.662 21.3467 161.494 21.357C161.328 21.3673 160.752 21.3724 159.77 21.3724C158.558 21.3724 157.83 21.3519 157.589 21.3107C157.35 21.2695 157.135 21.1564 156.947 20.9711C156.717 20.7037 156.529 20.4464 156.383 20.1995C156.34 20.1377 155.702 19.1809 154.469 17.3289C153.361 15.6826 152.764 14.839 152.681 14.7979C152.639 14.7773 152.603 14.7876 152.571 14.8287C152.54 14.8699 152.524 14.9315 152.524 15.0139C152.524 15.1374 152.504 15.4255 152.461 15.8782C152.441 16.0016 152.388 16.7733 152.304 18.1932C152.221 19.469 152.179 20.2097 152.179 20.4156C152.179 20.7448 152.023 20.9917 151.709 21.1564C151.668 21.1769 151.625 21.2026 151.584 21.2335C151.541 21.2643 151.515 21.2798 151.505 21.2798C151.494 21.2798 151.463 21.2901 151.411 21.3107C151.359 21.3313 151.317 21.3416 151.286 21.3416H151.097C151.004 21.3416 150.903 21.3364 150.8 21.3261C150.695 21.3158 150.548 21.3107 150.36 21.3107C149.461 21.2695 148.708 21.2078 148.102 21.1255C147.621 21.0432 147.349 20.8682 147.286 20.6008C147.181 19.8806 147.119 19.2118 147.099 18.5945C146.951 14.4789 146.878 10.5588 146.878 6.83424C146.878 6.60787 146.884 6.23753 146.895 5.7231C146.905 5.20867 146.91 4.87941 146.91 4.73533C146.91 4.2621 146.942 3.87105 147.004 3.56239C147.046 3.31553 147.166 3.11995 147.365 2.97597C147.563 2.83189 147.825 2.7393 148.148 2.6981C148.473 2.65701 148.766 2.63641 149.027 2.63641C149.289 2.63641 149.618 2.64672 150.015 2.66731C150.413 2.68781 150.673 2.6981 150.8 2.6981Z" fill="white"/>
<path d="M169.682 2.82159C171.417 2.7599 174.71 2.729 179.561 2.729L179.686 3.22283C179.77 3.59329 179.813 4.2415 179.813 5.16747C179.813 5.82599 179.697 6.82395 179.467 8.16157H178.683C178.558 8.16157 178.358 8.16672 178.087 8.17691C177.816 8.18721 177.408 8.19751 176.864 8.20781C176.32 8.21811 175.756 8.22326 175.17 8.22326V9.33451C175.17 10.0547 175.212 10.4766 175.296 10.6C175.379 10.7234 175.422 11.4231 175.422 12.699C175.422 14.7979 175.431 16.3309 175.452 17.298C175.495 18.9648 175.463 20.0143 175.358 20.4464C175.296 20.7346 175.16 20.9608 174.951 21.1255C174.804 21.2284 174.251 21.2593 173.288 21.2181C172.096 21.1358 171.375 21.0534 171.124 20.9711C170.789 20.8682 170.58 20.6728 170.497 20.3847C170.371 19.8703 170.288 19.5153 170.245 19.3198C170.204 19.1243 170.168 18.8825 170.136 18.5945C170.105 18.3064 170.094 18.0337 170.105 17.7765C170.116 17.5193 170.12 17.0717 170.12 16.4337V14.1497C170.079 10.9807 169.995 8.98466 169.869 8.16157L168.489 8.13068C167.59 8.13068 166.639 8.04839 165.635 7.88371L165.447 6.86515C165.426 6.74166 165.321 6.24783 165.133 5.38355C165.113 5.23946 165.029 4.90001 164.883 4.36499C164.861 4.30319 164.877 4.15922 164.93 3.93284C164.982 3.70647 165.05 3.54179 165.133 3.43891C165.3 3.21254 165.62 3.06856 166.09 3.00676C166.561 2.94507 167.517 2.89369 168.96 2.85249C169.274 2.83189 169.514 2.82159 169.682 2.82159Z" fill="white"/>
<path d="M204.793 2.91418C205.107 2.87309 205.494 2.87309 205.954 2.91418C206.1 2.91418 206.205 2.92448 206.268 2.94508C206.33 2.96568 206.367 2.99143 206.378 3.02222C206.388 3.05312 206.409 3.10461 206.44 3.1766C206.472 3.24859 206.508 3.31553 206.551 3.37722C206.738 3.64468 206.874 4.25696 206.958 5.21383C207.041 6.17059 207.052 7.02972 206.989 7.79112C206.947 8.16158 206.863 8.35705 206.738 8.37765C206.697 8.37765 206.618 8.39814 206.504 8.43934C206.388 8.48053 206.31 8.51133 206.268 8.53193C205.724 8.61421 205.06 8.68116 204.276 8.73255C203.492 8.78404 202.599 8.82513 201.595 8.85603C200.591 8.88693 199.921 8.91257 199.588 8.93317C199.294 8.95377 198.971 9.03606 198.615 9.18014V10.384C198.677 10.6102 198.709 11.0116 198.709 11.5877C198.709 11.7112 199.21 11.7421 200.214 11.6803C200.716 11.6597 201.542 11.5877 202.692 11.4642C203.319 11.4025 203.77 11.4128 204.041 11.4951C204.23 11.5568 204.376 11.6597 204.48 11.8038C204.542 11.9067 204.616 12.4005 204.699 13.2854C204.763 14.1085 204.752 14.6332 204.668 14.8596C204.585 15.0036 204.093 15.1168 203.194 15.1991C202.378 15.2608 201.825 15.3226 201.531 15.3843C201.469 15.4049 201.093 15.4564 200.403 15.5387C199.692 15.6416 199.315 15.693 199.274 15.693C199.169 15.7342 199.106 15.8628 199.085 16.0789C199.064 16.2949 199.064 16.8865 199.085 17.8537C199.128 19.2941 199.096 20.3744 198.991 21.0946L197.736 21.1564C196.356 21.2181 195.562 21.249 195.353 21.249C194.621 21.249 194.192 21.1872 194.067 21.0637C193.942 20.9403 193.848 20.0143 193.785 18.2858C193.722 16.9894 193.648 14.7876 193.565 11.6803C193.461 8.14098 193.418 6.17574 193.439 5.7848C193.461 4.83822 193.523 4.2723 193.628 4.08712C193.691 3.94315 193.837 3.75787 194.067 3.5315C194.213 3.36692 194.935 3.23314 196.231 3.13025C196.482 3.10965 197.752 3.05312 200.042 2.96053C202.332 2.86794 203.549 2.8113 203.697 2.7907C203.8 2.77021 203.983 2.7907 204.245 2.85249C204.507 2.91418 204.69 2.93478 204.793 2.91418Z" fill="white"/>
<path d="M213.953 7.66765C213.994 8.55253 214.026 9.13895 214.047 9.42712C214.047 9.50941 214.058 9.74092 214.078 10.1216C214.099 10.5022 214.12 10.744 214.14 10.8469L214.204 11.7729C214.224 11.7524 214.37 11.7421 214.643 11.7421C214.914 11.7421 215.06 11.7215 215.081 11.6803L215.395 11.6186C215.604 11.5774 215.844 11.5363 216.117 11.4951C216.388 11.4539 216.566 11.4231 216.65 11.4025C216.88 11.3613 217.168 11.2122 217.512 10.955C217.858 10.6978 218.051 10.4457 218.092 10.1987C218.26 9.23154 218.218 8.48055 217.967 7.94552C217.716 7.41049 217.131 7.14292 216.211 7.14292C215.688 7.14292 215.144 7.23551 214.58 7.42079L213.953 7.66765ZM212.949 2.51295C213.66 2.47186 214.569 2.45126 215.678 2.45126C217.224 2.45126 218.302 2.5387 218.908 2.71357C219.515 2.88856 220.226 3.28465 221.041 3.90197C222.609 5.116 223.394 6.78288 223.394 8.90239C223.394 10.137 223.153 11.1401 222.672 11.9118C222.191 12.6835 221.49 13.3883 220.57 14.0262C220.445 14.1085 220.314 14.1857 220.179 14.2577C220.043 14.3297 219.927 14.3863 219.833 14.4274C219.74 14.4686 219.598 14.5097 219.41 14.5509C219.222 14.5921 219.096 14.6229 219.033 14.6435C218.971 14.6641 218.814 14.695 218.563 14.7361C218.312 14.7773 218.145 14.8082 218.062 14.8287C217.768 14.9111 217.131 14.9934 216.148 15.0756C215.333 15.1579 214.873 15.23 214.768 15.2917C214.684 15.3534 214.643 15.8987 214.643 16.9277C214.643 17.1129 214.647 17.3958 214.658 17.7765C214.668 18.1572 214.673 18.4504 214.673 18.6562C214.673 19.932 214.611 20.6316 214.486 20.7551C214.381 20.8786 213.994 21.002 213.325 21.1255C212.949 21.1872 212.332 21.2181 211.475 21.2181C210.345 21.2181 209.697 21.1152 209.53 20.9095C209.321 20.5596 209.195 20.3435 209.154 20.2612C209.07 20.0761 209.029 19.0883 209.029 17.298V16.1251C209.029 15.6724 209.033 14.7515 209.044 13.3625C209.055 11.9736 209.059 10.9087 209.059 10.1679V8.06889C209.059 7.80143 209.055 7.45158 209.044 7.01944C209.033 6.5874 209.029 6.29924 209.029 6.15526C209.029 5.02341 209.049 4.32381 209.091 4.05635C209.133 3.78878 209.227 3.59331 209.373 3.46982C209.603 3.24345 210.001 3.05828 210.565 2.9142C211.359 2.70842 212.154 2.57475 212.949 2.51295Z" fill="white"/>
<path d="M232.803 2.45125C234.12 2.49234 234.926 2.56443 235.218 2.66732C235.239 2.66732 235.794 2.91418 236.88 3.40812C237.759 3.79906 238.208 3.99453 238.229 3.99453C238.313 3.99453 238.438 4.07682 238.605 4.2415C238.794 4.38548 238.887 4.59125 238.887 4.85882C238.887 5.10579 238.846 5.27036 238.762 5.35265C238.741 5.37325 238.616 5.6716 238.386 6.24783C238.345 6.37131 238.302 6.49469 238.261 6.61818C238.219 6.74166 238.188 6.8394 238.167 6.91138C238.145 6.98348 238.145 7.01942 238.167 7.01942C238.188 7.01942 238.104 7.23549 237.916 7.66763C237.811 7.9146 237.675 8.20267 237.507 8.53192C237.445 8.676 237.247 8.73769 236.912 8.7171C236.577 8.67601 236.358 8.6245 236.254 8.56282C236.065 8.43933 235.814 8.28495 235.5 8.09978C235.124 7.87341 234.632 7.66763 234.026 7.48246C233.42 7.29729 232.97 7.2047 232.678 7.2047C232.427 7.2047 232.092 7.28699 231.674 7.45157C231.423 7.53396 231.266 7.61625 231.203 7.69854C231.141 7.78082 231.109 7.92491 231.109 8.13068C231.109 8.58342 231.36 8.97436 231.862 9.30362C232.364 9.63287 232.908 9.86944 233.493 10.0135C233.828 10.0958 234.35 10.3119 235.061 10.6617C235.521 10.8881 236.054 11.2071 236.661 11.6186C237.1 11.9067 237.497 12.2771 237.853 12.7298C238.167 13.1208 238.345 13.4602 238.386 13.7484C238.449 14.16 238.491 14.6744 238.511 15.2917C238.575 16.6087 238.281 17.7405 237.634 18.687C237.361 19.078 237.079 19.4381 236.787 19.7674C236.514 20.0761 236.076 20.3744 235.469 20.6625C234.591 21.0946 233.514 21.3004 232.238 21.2798C230.963 21.2593 229.876 21.0226 228.977 20.5699L228.349 20.2612C228.287 20.22 228.182 20.1686 228.036 20.1068C227.889 20.0452 227.784 19.9938 227.722 19.9526C227.513 19.8291 227.052 19.5101 226.342 18.9957C225.652 18.4813 225.265 18.08 225.182 17.7919C225.118 17.5244 225.296 17.1129 225.715 16.5572C225.882 16.3103 226.205 15.909 226.687 15.3534C227.168 14.7979 227.439 14.5097 227.503 14.4892C227.753 14.448 228.496 14.7258 229.729 15.3226C231.047 15.9399 231.904 16.2383 232.302 16.2177C232.782 16.1766 233.095 16.084 233.243 15.9399C233.409 15.7752 233.493 15.6107 233.493 15.4461C233.493 15.3226 233.295 15.0962 232.897 14.767C232.5 14.4377 231.977 14.16 231.329 13.9336C230.681 13.7072 230.231 13.5323 229.981 13.4089C229.353 13.1002 229.008 12.9458 228.945 12.9458C228.799 12.9458 228.642 12.8635 228.475 12.699C228.391 12.6166 228.077 12.38 227.533 11.9889C227.116 11.7009 226.74 11.3099 226.405 10.816C226.112 10.4045 225.861 9.86943 225.652 9.21103C225.485 8.6554 225.432 8.08948 225.495 7.51336C225.579 6.91654 225.715 6.433 225.902 6.06255C226.53 4.80732 227.544 3.84026 228.945 3.16115C229.614 2.83189 230.147 2.62612 230.544 2.54384C230.942 2.46155 231.694 2.43065 232.803 2.45125Z" fill="white"/>
<path fill-rule="evenodd" clip-rule="evenodd" d="M100.744 17.9459L98.9728 9.69675L104.876 5.86267L110.897 9.81291L108.418 16.4355L100.744 17.9459Z" fill="#2E7BEC"/>
<path d="M107.288 10.092C108.733 10.6895 110.286 10.2885 110.756 9.19639C111.227 8.10426 110.437 6.73453 108.992 6.13701C107.547 5.5395 105.994 5.94047 105.524 7.0326C105.053 8.12473 105.843 9.49446 107.288 10.092Z" fill="white"/>
<path d="M100.964 11.2163C102.255 10.3378 102.745 8.83657 102.059 7.86329C101.374 6.89002 99.7717 6.81324 98.4814 7.6918C97.1911 8.57037 96.7009 10.0716 97.3865 11.0449C98.0722 12.0181 99.674 12.0949 100.964 11.2163Z" fill="white"/>
<path d="M107.636 8.89006C108.509 9.25119 109.466 8.96781 109.772 8.25712C110.078 7.54642 109.618 6.67753 108.745 6.3164C107.872 5.95526 106.915 6.23864 106.609 6.94934C106.303 7.66004 106.762 8.52893 107.636 8.89006Z" fill="#001649"/>
<path d="M100.544 10.0724C101.444 9.77976 101.972 8.94918 101.723 8.21725C101.474 7.48532 100.542 7.12921 99.6426 7.42186C98.7429 7.71451 98.2153 8.5451 98.4643 9.27703C98.7133 10.009 99.6445 10.3651 100.544 10.0724Z" fill="#001649"/>
<path d="M101.58 13.9662C103.898 15.4185 105.819 15.2458 107.275 13.1742" stroke="white" stroke-width="4" stroke-miterlimit="1.5" stroke-linecap="round" stroke-linejoin="round"/>
</g>
<defs>
<clipPath id="clip0_93_37">
<rect width="239" height="24" fill="white"/>
</clipPath>
</defs>
</svg>
