<?xml version="1.0" encoding="UTF-8" standalone="no"?>
<!DOCTYPE svg PUBLIC "-//W3C//DTD SVG 1.1//EN" "http://www.w3.org/Graphics/SVG/1.1/DTD/svg11.dtd">
<svg width="100%" height="100%" viewBox="0 0 32 32" version="1.1" xmlns="http://www.w3.org/2000/svg" xmlns:xlink="http://www.w3.org/1999/xlink" xml:space="preserve" xmlns:serif="http://www.serif.com/" style="fill-rule:evenodd;clip-rule:evenodd;stroke-linejoin:round;stroke-miterlimit:2;">
    <g transform="matrix(1.21354,0,0,1.19769,-2.50134,-3.22141)">
        <path d="M16.5,3C22.565,2.703 27.373,6.636 28,14.5C28.69,23.161 27.067,28.183 17.5,29C4.533,30.107 0.646,22.912 3,15C5.814,5.543 7.267,3.453 16.5,3Z" style="fill:rgb(0,33,90);"/>
    </g>
    <g transform="matrix(1.18252,0,0,1.18252,-16.8109,-0.75975)">
        <g transform="matrix(1,0,0,1,14.5887,-6.35979)">
            <path d="M9.657,21L7.077,13.537L8.584,13.537C9.056,13.537 9.472,13.847 9.605,14.3C10.045,15.794 10.977,18.958 10.977,18.958L10.302,18.973C10.302,18.973 11.539,15.163 11.942,13.922C12.017,13.692 12.231,13.537 12.473,13.537C12.796,13.537 13.245,13.537 13.567,13.537C13.809,13.537 14.023,13.692 14.098,13.921C14.504,15.161 15.753,18.973 15.753,18.973L15.062,18.958C15.062,18.958 16.002,15.798 16.447,14.303C16.582,13.848 17,13.537 17.474,13.537C18.139,13.537 18.978,13.537 18.978,13.537L16.398,21L14.479,21L12.743,15.84L13.327,15.84L11.561,21L9.657,21Z" style="fill:rgb(244,200,51);fill-rule:nonzero;"/>
        </g>
        <g transform="matrix(1,0,0,1,0.337843,0)">
            <path d="M23.324,21.169C22.556,21.169 21.863,20.997 21.243,20.654C20.624,20.312 20.135,19.843 19.777,19.249C19.418,18.656 19.239,17.99 19.239,17.253C19.239,16.516 19.418,15.856 19.777,15.272C20.135,14.688 20.621,14.225 21.235,13.882C21.85,13.539 22.546,13.368 23.324,13.368C24.102,13.368 24.798,13.537 25.412,13.875C26.027,14.212 26.513,14.676 26.871,15.264C27.23,15.853 27.409,16.516 27.409,17.253C27.409,17.99 27.23,18.656 26.871,19.249C26.513,19.843 26.027,20.312 25.412,20.654C24.798,20.997 24.102,21.169 23.324,21.169ZM23.324,19.034C23.662,19.034 23.959,18.96 24.215,18.812C24.471,18.663 24.668,18.453 24.806,18.182C24.944,17.911 25.013,17.601 25.013,17.253C25.013,16.905 24.942,16.6 24.798,16.339C24.655,16.078 24.458,15.873 24.207,15.725C23.956,15.577 23.662,15.502 23.324,15.502C22.996,15.502 22.705,15.577 22.449,15.725C22.193,15.873 21.993,16.081 21.85,16.347C21.706,16.613 21.635,16.92 21.635,17.268C21.635,17.606 21.706,17.911 21.85,18.182C21.993,18.453 22.193,18.663 22.449,18.812C22.705,18.96 22.996,19.034 23.324,19.034Z" style="fill:rgb(244,200,51);fill-rule:nonzero;"/>
        </g>
        <g transform="matrix(1,0,0,1,-0.675686,0)">
            <path d="M32.169,21.169C31.401,21.169 30.708,20.997 30.089,20.654C29.469,20.312 28.98,19.843 28.622,19.249C28.264,18.656 28.084,17.99 28.084,17.253C28.084,16.516 28.264,15.856 28.622,15.272C28.98,14.688 29.467,14.225 30.081,13.882C30.695,13.539 31.391,13.368 32.169,13.368C32.947,13.368 33.644,13.537 34.258,13.875C34.872,14.212 35.358,14.676 35.717,15.264C36.075,15.853 36.254,16.516 36.254,17.253C36.254,17.99 36.075,18.656 35.717,19.249C35.358,19.843 34.872,20.312 34.258,20.654C33.644,20.997 32.947,21.169 32.169,21.169ZM32.169,19.034C32.507,19.034 32.804,18.96 33.06,18.812C33.316,18.663 33.513,18.453 33.651,18.182C33.789,17.911 33.859,17.601 33.859,17.253C33.859,16.905 33.787,16.6 33.644,16.339C33.5,16.078 33.303,15.873 33.052,15.725C32.801,15.577 32.507,15.502 32.169,15.502C31.842,15.502 31.55,15.577 31.294,15.725C31.038,15.873 30.838,16.081 30.695,16.347C30.552,16.613 30.48,16.92 30.48,17.268C30.48,17.606 30.552,17.911 30.695,18.182C30.838,18.453 31.038,18.663 31.294,18.812C31.55,18.96 31.842,19.034 32.169,19.034Z" style="fill:rgb(244,200,51);fill-rule:nonzero;"/>
        </g>
    </g>
    <g transform="matrix(1,0,0,1,0.602258,0.301129)">
        <g transform="matrix(2.05237,0,0,2.05237,-13.1923,-22.1683)">
            <circle cx="11.91" cy="20.4" r="0.74" style="fill:rgb(244,200,51);"/>
        </g>
        <g transform="matrix(2.05237,0,0,2.05237,-3.94275,-22.1282)">
            <circle cx="11.91" cy="20.4" r="0.74" style="fill:rgb(244,200,51);"/>
        </g>
    </g>
</svg>
